<?xml version="1.0" encoding="UTF-8"?>
<!-- Generator: visioncortex VTracer 0.6.12 -->
<svg version="1.1" xmlns="http://www.w3.org/2000/svg" width="640" height="512">
<path d="M0 0 C0.777 -0.05 1.555 -0.1 2.355 -0.152 C17.872 -1.148 33.401 -1.742 48.942 -2.202 C58.795 -2.501 68.613 -2.915 78.444 -3.636 C144.477 -8.378 144.477 -8.378 160.178 4.114 C167.954 11.146 174.094 19.908 180.362 28.26 C195.611 48.494 210.341 64.235 236.491 67.959 C254.329 70.281 272.364 70.503 290.326 70.492 C290.734 70.493 290.734 70.493 292.799 70.493 C313.955 70.483 335.08 69.862 356.217 69.04 C368.476 68.568 380.732 68.248 392.998 68.034 C393.433 68.026 393.433 68.026 395.633 67.988 C400.868 67.897 406.102 67.811 411.337 67.726 C418.964 67.601 426.592 67.467 434.219 67.328 C435.04 67.313 435.86 67.299 436.706 67.283 C447.988 67.076 459.266 66.789 470.544 66.425 C472.831 66.351 475.117 66.28 477.404 66.209 C489.398 65.834 489.398 65.834 494.471 65.64 C498.253 65.496 502.036 65.373 505.819 65.252 C506.361 65.228 506.361 65.228 509.108 65.107 C525.095 64.649 539.229 70.684 551.189 81.102 C562.699 92.305 571.106 107.234 571.443 123.534 C571.456 126.066 571.457 128.598 571.45 131.13 C571.453 132.543 571.457 133.956 571.461 135.369 C571.472 139.239 571.469 143.108 571.465 146.978 C571.463 151.156 571.472 155.335 571.479 159.514 C571.492 167.696 571.494 175.877 571.491 184.059 C571.49 190.712 571.491 197.364 571.496 204.017 C571.496 204.964 571.497 205.912 571.497 206.888 C571.499 208.813 571.5 210.737 571.501 212.662 C571.512 230.709 571.51 248.755 571.504 266.802 C571.498 283.299 571.51 299.796 571.529 316.293 C571.548 333.244 571.556 350.194 571.553 367.145 C571.551 376.657 571.553 386.169 571.567 395.68 C571.579 403.779 571.581 411.878 571.568 419.977 C571.563 424.106 571.561 428.235 571.573 432.364 C571.584 436.151 571.581 439.937 571.567 443.723 C571.563 445.728 571.574 447.733 571.586 449.738 C571.479 467.746 565.325 482.942 552.748 495.864 C540.383 507.284 525.562 513.57 508.775 513.481 C507.867 513.484 506.959 513.488 506.023 513.491 C502.987 513.499 499.951 513.493 496.915 513.488 C494.713 513.491 492.511 513.494 490.309 513.499 C484.264 513.509 478.219 513.507 472.174 513.503 C466.323 513.501 460.471 513.508 454.619 513.515 C441.175 513.53 427.731 513.532 414.286 513.529 C403.903 513.527 393.52 513.529 383.137 513.533 C381.645 513.534 380.153 513.535 378.66 513.535 C376.412 513.536 374.163 513.537 371.914 513.538 C351.008 513.546 330.102 513.551 309.197 513.547 C308.409 513.546 307.621 513.546 306.809 513.546 C302.815 513.545 298.822 513.544 294.828 513.544 C294.035 513.543 293.242 513.543 292.425 513.543 C290.821 513.543 289.217 513.542 287.613 513.542 C262.659 513.537 237.704 513.545 212.749 513.563 C184.705 513.584 156.66 513.594 128.616 513.59 C125.624 513.59 122.633 513.59 119.642 513.589 C118.906 513.589 118.169 513.589 117.41 513.589 C106.299 513.588 95.188 513.595 84.077 513.605 C71.438 513.617 58.8 513.619 46.161 513.606 C39.713 513.6 33.265 513.599 26.817 513.611 C20.912 513.622 15.007 513.619 9.102 513.605 C6.968 513.602 4.834 513.605 2.7 513.613 C-18.537 513.687 -35.746 510.069 -51.448 494.785 C-64.995 480.119 -69.119 464.256 -69.078 444.863 C-69.082 443.182 -69.087 441.502 -69.092 439.821 C-69.104 435.213 -69.104 430.604 -69.102 425.995 C-69.101 421.021 -69.112 416.047 -69.122 411.073 C-69.139 401.33 -69.144 391.588 -69.145 381.846 C-69.146 373.925 -69.15 366.004 -69.157 358.084 C-69.174 335.619 -69.183 313.155 -69.182 290.69 C-69.182 289.479 -69.182 288.268 -69.182 287.021 C-69.182 286.415 -69.182 286.415 -69.181 283.348 C-69.181 263.705 -69.2 244.063 -69.228 224.42 C-69.257 204.243 -69.27 184.067 -69.269 163.89 C-69.268 152.566 -69.274 141.241 -69.295 129.917 C-69.313 120.274 -69.318 110.632 -69.304 100.989 C-69.298 96.072 -69.297 91.155 -69.315 86.238 C-69.331 81.73 -69.328 77.223 -69.31 72.716 C-69.307 71.091 -69.311 69.467 -69.322 67.842 C-69.445 48.728 -63.839 32.6 -50.405 18.66 C-35.88 5.032 -19.261 1.188 0 0 Z " fill="#FFC927" transform="translate(68.81103515625,-1.226806640625)"/>
<path d="M0 0 C0.778 -0.049 1.555 -0.099 2.357 -0.15 C23.824 -1.506 45.312 -2.299 66.814 -2.836 C67.803 -2.861 68.792 -2.887 69.811 -2.914 C158.906 -5.189 158.906 -5.189 186.417 19.401 C190.766 23.551 194.667 27.989 198.439 32.664 C199.046 33.415 199.652 34.167 200.277 34.941 C219.189 58.774 219.189 58.774 219.189 65.227 C217.996 65.228 216.803 65.23 215.574 65.231 C187.207 65.267 158.84 65.323 130.473 65.405 C126.976 65.415 123.479 65.425 119.982 65.434 C119.286 65.436 118.59 65.438 117.873 65.44 C106.624 65.471 95.375 65.488 84.127 65.5 C72.571 65.512 61.015 65.54 49.46 65.581 C42.975 65.604 36.49 65.62 30.005 65.619 C23.893 65.618 17.782 65.636 11.67 65.668 C9.435 65.676 7.199 65.678 4.964 65.673 C-17.536 65.624 -34.624 69.96 -51.487 85.801 C-60.249 95.177 -64.971 106.933 -67.811 119.227 C-68.141 119.227 -68.471 119.227 -68.811 119.227 C-68.904 110.846 -68.975 102.466 -69.018 94.084 C-69.039 90.191 -69.067 86.299 -69.113 82.406 C-69.157 78.639 -69.18 74.872 -69.191 71.104 C-69.198 69.678 -69.212 68.251 -69.234 66.824 C-69.509 48.105 -63.466 32.214 -50.405 18.66 C-35.882 5.034 -19.26 1.184 0 0 Z " fill="#FFA000" transform="translate(68.81103515625,-1.226806640625)"/>
</svg>
