<?xml version="1.0" encoding="UTF-8"?>
<!-- Generator: visioncortex VTracer 0.6.12 -->
<svg version="1.1" xmlns="http://www.w3.org/2000/svg" width="512" height="512">
<path d="M0 0 C9.995 9.249 19.669 18.856 27.882 29.741 C28.393 30.403 28.904 31.064 29.43 31.746 C64.533 77.263 83.412 131.798 83.194 189.304 C83.192 190.324 83.19 191.345 83.188 192.397 C83.138 207.04 82.828 221.351 79.882 235.741 C79.688 236.738 79.495 237.734 79.296 238.761 C70.116 285.219 49.186 328.011 16.882 362.741 C15.711 364.091 14.544 365.445 13.382 366.804 C7.037 374.051 0.21 380.482 -7.313 386.495 C-9.14 387.958 -10.949 389.444 -12.735 390.956 C-31.787 407.039 -54.14 419.269 -77.118 428.741 C-77.806 429.026 -78.494 429.312 -79.202 429.605 C-87.566 433.013 -94.732 435.636 -103.493 432.554 C-106.536 430.453 -107.546 429.079 -109.118 425.741 C-109.401 422.989 -109.526 420.465 -109.503 417.717 C-109.506 417.319 -109.506 417.319 -109.519 415.309 C-109.529 413.588 -109.532 411.867 -109.529 410.145 C-109.524 407.406 -109.538 404.667 -109.557 401.927 C-109.594 396.094 -109.608 390.262 -109.618 384.429 C-109.63 377.702 -109.652 370.975 -109.698 364.248 C-109.712 361.576 -109.708 358.905 -109.703 356.233 C-109.761 338.021 -111.944 321.757 -123.509 307.089 C-125.118 304.741 -125.118 304.741 -125.118 301.741 C-124.501 301.651 -123.884 301.562 -123.248 301.469 C-92.443 296.897 -62.785 289.369 -40.118 266.741 C-39.434 266.068 -38.749 265.395 -38.044 264.702 C-22.177 248.056 -15.638 225.922 -12.118 203.741 C-12.021 203.151 -12.021 203.151 -11.532 200.163 C-10.82 194.094 -10.894 187.965 -10.878 181.863 C-10.868 179.708 -10.837 177.554 -10.806 175.399 C-10.641 154.01 -16.798 134.269 -29.118 116.741 C-30.534 115.467 -31.969 114.212 -33.431 112.991 C-35.142 111.167 -35.142 111.167 -36.118 108.741 C-35.667 104.932 -34.879 101.418 -33.914 97.716 C-29.11 78.745 -31.77 58.683 -39.118 40.741 C-61.354 39.045 -86.579 51.282 -103.856 64.573 C-107.118 66.741 -107.118 66.741 -109.47 66.933 C-110.22 66.725 -110.97 66.518 -111.743 66.304 C-112.216 66.191 -112.216 66.191 -114.606 65.62 C-115.186 65.475 -115.186 65.475 -118.118 64.741 C-154.222 56.901 -189.726 56.912 -225.837 64.62 C-226.772 64.812 -227.707 65.004 -228.67 65.201 C-231.118 65.741 -231.118 65.741 -234.263 66.729 C-239.055 66.749 -242.396 63.936 -246.306 61.366 C-260.118 52.703 -274.128 45.381 -290.118 41.741 C-290.95 41.547 -291.781 41.352 -292.638 41.151 C-295.443 40.687 -298.089 40.644 -300.931 40.679 C-301.906 40.688 -302.882 40.697 -303.888 40.706 C-304.624 40.718 -305.36 40.729 -306.118 40.741 C-313.023 62.986 -315.682 83.093 -309.243 105.831 C-309.062 110.043 -310.82 111.487 -313.556 114.616 C-328.15 132.297 -334.577 155.175 -334.368 177.866 C-334.361 178.954 -334.353 180.043 -334.345 181.164 C-333.909 214.291 -325.372 245.373 -302.106 269.858 C-279.841 290.979 -249.398 297.346 -220.118 301.741 C-219.788 302.731 -219.458 303.721 -219.118 304.741 C-219.87 305.433 -220.621 306.126 -221.396 306.839 C-224.205 309.834 -225.855 312.514 -227.681 316.179 C-227.984 316.781 -228.287 317.382 -228.599 318.002 C-230.724 322.403 -231.875 326.6 -232.931 331.366 C-234.459 337.229 -234.459 337.229 -237.302 339.437 C-239.925 340.514 -242.34 341.173 -245.118 341.741 C-246.325 342.089 -247.531 342.437 -248.774 342.796 C-261.984 346.087 -277.788 345.054 -289.622 338.315 C-291.873 336.881 -293.996 335.358 -296.118 333.741 C-296.623 333.38 -296.623 333.38 -299.181 331.554 C-303.643 327.704 -306.758 322.529 -310.118 317.741 C-318.613 305.739 -326.853 296.496 -341.118 291.741 C-343.817 291.645 -346.483 291.602 -349.181 291.616 C-349.913 291.612 -350.646 291.608 -351.401 291.604 C-356.865 291.615 -356.865 291.615 -359.118 292.741 C-359.181 295.304 -359.181 295.304 -358.118 298.741 C-354.794 301.985 -350.93 304.548 -347.06 307.097 C-334.32 315.838 -326.878 331.748 -320.408 345.392 C-314.193 358.414 -305.991 366.022 -292.431 370.991 C-277.546 375.577 -262.607 375.337 -247.347 373.453 C-246.613 373.363 -245.879 373.272 -245.122 373.179 C-244.796 373.137 -244.796 373.137 -243.148 372.925 C-240.797 372.712 -238.477 372.73 -236.118 372.741 C-236.042 380.055 -235.99 387.369 -235.953 394.683 C-235.938 397.171 -235.918 399.659 -235.892 402.147 C-235.855 405.724 -235.838 409.301 -235.825 412.878 C-235.81 413.99 -235.794 415.101 -235.778 416.247 C-235.778 416.767 -235.778 416.767 -235.778 419.4 C-235.774 419.856 -235.774 419.856 -235.757 422.166 C-236.367 426.519 -238.77 429.951 -242.118 432.741 C-251.013 435.706 -258.709 432.89 -266.993 429.366 C-268.085 428.914 -269.176 428.461 -270.3 427.995 C-298.42 416.159 -323.738 400.561 -346.118 379.741 C-347.489 378.549 -348.864 377.361 -350.243 376.179 C-357.117 370.159 -363.134 363.703 -368.845 356.569 C-370.293 354.767 -371.765 352.984 -373.267 351.226 C-407.304 311.167 -428.896 255.29 -429.356 202.687 C-429.366 201.755 -429.376 200.824 -429.386 199.864 C-429.559 179.173 -429.401 159.078 -425.118 138.741 C-424.904 137.71 -424.69 136.679 -424.469 135.616 C-415.452 93.617 -395.779 53.798 -367.118 21.741 C-366.383 20.897 -365.649 20.053 -364.892 19.183 C-355.449 8.452 -345.41 -1.482 -334.118 -10.259 C-333.627 -10.653 -333.627 -10.653 -331.142 -12.646 C-296.476 -40.235 -254.72 -57.323 -211.118 -64.259 C-210.407 -64.377 -209.696 -64.496 -208.963 -64.618 C-134.083 -76.591 -55.71 -50.29 0 0 Z " fill="#1A1E22" transform="translate(429.1181640625,72.2587890625)"/>
</svg>
