<?xml version="1.0" encoding="UTF-8"?>
<!-- Generator: visioncortex VTracer 0.6.12 -->
<svg version="1.1" xmlns="http://www.w3.org/2000/svg" width="512" height="512">
<path d="M0 0 C0.781 0.593 1.561 1.186 2.365 1.796 C5.884 4.469 9.4 7.147 12.908 9.833 C18.726 14.287 24.588 18.672 30.5 23 C38.128 28.586 45.656 34.293 53.164 40.039 C58.899 44.421 64.678 48.735 70.5 53 C78.127 58.587 85.656 64.293 93.164 70.039 C98.899 74.421 104.678 78.735 110.5 83 C117.225 87.926 123.88 92.934 130.5 98 C137.485 103.341 144.496 108.643 151.562 113.875 C152.354 114.464 153.145 115.053 153.961 115.66 C154.329 115.932 154.329 115.932 156.191 117.305 C156.512 117.542 156.512 117.542 158.135 118.742 C160.025 120.017 161.94 121.028 164 122 C164.446 121.649 164.892 121.298 165.351 120.937 C174.686 113.604 184.098 106.402 193.679 99.394 C199.674 95 205.598 90.519 211.5 86 C218.886 80.346 226.332 74.785 233.836 69.289 C239.777 64.927 245.648 60.479 251.5 56 C258.886 50.346 266.332 44.785 273.836 39.289 C279.777 34.927 285.647 30.479 291.5 26 C298.999 20.261 306.548 14.598 314.172 9.025 C317.922 6.282 321.647 3.517 325.32 0.672 C341.815 -12.072 355.992 -17.659 377 -16 C389.166 -13.732 401.442 -6.388 408.91 3.539 C414.537 12.021 419.115 21.076 419.134 31.402 C419.139 32.505 419.143 33.608 419.148 34.745 C419.148 35.351 419.148 35.351 419.147 38.417 C419.151 39.705 419.155 40.992 419.158 42.318 C419.168 45.895 419.172 49.471 419.175 53.048 C419.179 56.904 419.188 60.761 419.197 64.617 C419.217 73.931 419.227 83.245 419.236 92.559 C419.24 96.945 419.245 101.332 419.251 105.719 C419.268 120.301 419.282 134.884 419.289 149.466 C419.291 153.25 419.293 157.033 419.295 160.817 C419.296 161.758 419.296 162.698 419.297 163.667 C419.305 178.902 419.33 194.137 419.363 209.373 C419.396 225.016 419.414 240.659 419.417 256.301 C419.419 265.084 419.428 273.866 419.453 282.649 C419.475 290.128 419.483 297.607 419.474 305.086 C419.469 308.901 419.471 312.716 419.49 316.53 C419.511 320.67 419.501 324.809 419.488 328.948 C419.493 329.548 419.493 329.548 419.521 332.586 C419.441 343.043 416.287 351.372 409 359 C379.832 383.133 338.176 368 302 368 C301.67 303.65 301.34 239.3 301 173 C279.561 188.797 279.561 188.797 271.5 195 C264.115 200.655 256.668 206.215 249.164 211.711 C243.223 216.073 237.352 220.521 231.5 225 C224.881 230.067 218.225 235.074 211.5 240 C204.715 244.971 197.997 250.02 191.312 255.125 C190.437 255.791 189.562 256.456 188.66 257.142 C184.511 260.301 180.382 263.479 176.293 266.715 C175.565 267.283 174.837 267.85 174.087 268.435 C172.735 269.489 171.392 270.556 170.06 271.635 C165.647 275.049 165.647 275.049 162.573 274.817 C159.707 273.907 157.946 272.75 155.586 270.895 C154.753 270.248 153.919 269.602 153.061 268.936 C152.174 268.235 151.288 267.534 150.375 266.812 C148.478 265.339 146.579 263.866 144.68 262.395 C143.725 261.653 142.771 260.911 141.788 260.147 C137.741 257.03 133.626 254.011 129.5 251 C121.872 245.415 114.344 239.707 106.836 233.961 C101.101 229.579 95.322 225.265 89.5 221 C82.775 216.074 76.12 211.066 69.5 206 C59.755 198.544 49.901 191.247 40 184 C35.05 180.37 30.1 176.74 25 173 C24.67 237.35 24.34 301.7 24 368 C-73.532 368 -73.532 368 -84 358 C-91.741 348.644 -93.298 341.306 -93.267 329.369 C-93.272 328.083 -93.276 326.797 -93.281 325.471 C-93.293 321.907 -93.293 318.343 -93.291 314.779 C-93.29 310.932 -93.301 307.085 -93.311 303.238 C-93.327 295.703 -93.333 288.167 -93.334 280.632 C-93.335 274.504 -93.339 268.376 -93.346 262.247 C-93.363 244.862 -93.372 227.477 -93.371 210.091 C-93.371 209.154 -93.371 208.217 -93.371 207.252 C-93.371 206.313 -93.37 205.375 -93.37 204.409 C-93.37 189.215 -93.389 174.021 -93.417 158.828 C-93.446 143.216 -93.459 127.605 -93.458 111.994 C-93.457 103.233 -93.462 94.473 -93.484 85.713 C-93.502 78.252 -93.507 70.79 -93.493 63.329 C-93.487 59.526 -93.486 55.723 -93.504 51.92 C-93.522 47.786 -93.51 43.653 -93.494 39.52 C-93.505 38.332 -93.515 37.144 -93.526 35.921 C-93.412 22.002 -89.144 9.975 -79.816 -0.438 C-55.336 -24.234 -24.894 -19.008 0 0 Z " fill="#EA4334" transform="translate(93,80)"/>
<path d="M0 0 C1.415 0.932 2.828 1.867 4.241 2.803 C4.634 3.063 4.634 3.063 6.626 4.379 C10.344 6.917 13.851 9.703 17.375 12.5 C23.611 17.401 29.91 22.194 36.312 26.875 C43.102 31.841 49.821 36.887 56.5 42 C63.119 47.067 69.775 52.074 76.5 57 C112.047 83.047 112.047 83.047 117 88 C117.098 90.542 117.13 93.057 117.12 95.599 C117.121 96.404 117.122 97.21 117.123 98.039 C117.125 100.759 117.119 103.478 117.114 106.198 C117.113 108.139 117.113 110.08 117.114 112.021 C117.114 117.308 117.108 122.594 117.101 127.881 C117.095 133.4 117.095 138.919 117.093 144.437 C117.09 154.896 117.082 165.354 117.072 175.812 C117.061 187.715 117.055 199.619 117.05 211.522 C117.04 236.014 117.022 260.507 117 285 C105.291 285.093 93.581 285.164 81.872 285.207 C76.434 285.228 70.996 285.256 65.558 285.302 C60.306 285.345 55.055 285.369 49.802 285.38 C47.803 285.387 45.804 285.401 43.804 285.423 C40.994 285.452 38.185 285.456 35.375 285.454 C34.557 285.468 33.738 285.483 32.895 285.498 C23.72 285.433 15.594 281.299 9 275 C1.873 266.386 -0.305 259.474 -0.241 248.446 C-0.242 247.383 -0.244 246.32 -0.246 245.225 C-0.249 241.665 -0.238 238.104 -0.227 234.543 C-0.226 231.991 -0.227 229.438 -0.228 226.886 C-0.228 221.39 -0.223 215.895 -0.211 210.4 C-0.195 202.455 -0.19 194.509 -0.187 186.564 C-0.183 173.673 -0.17 160.782 -0.151 147.891 C-0.133 135.369 -0.118 122.848 -0.11 110.327 C-0.109 109.555 -0.109 108.783 -0.108 107.988 C-0.106 104.114 -0.103 100.241 -0.101 96.368 C-0.08 64.245 -0.045 32.123 0 0 Z " fill="#4284F3" transform="translate(0,163)"/>
<path d="M0 0 C0.092 32.714 0.162 65.429 0.204 98.143 C0.209 102.007 0.214 105.871 0.22 109.735 C0.221 110.504 0.222 111.274 0.223 112.066 C0.24 124.515 0.272 136.963 0.309 149.411 C0.346 162.189 0.368 174.966 0.376 187.743 C0.382 195.624 0.399 203.506 0.432 211.387 C0.455 217.435 0.458 223.483 0.452 229.53 C0.454 232.008 0.461 234.486 0.477 236.964 C0.497 240.351 0.492 243.736 0.481 247.123 C0.493 248.101 0.504 249.078 0.516 250.086 C0.432 259.786 -3.29 267.976 -10 275 C-18.024 281.638 -24.704 284.317 -35.035 284.227 C-35.923 284.227 -36.812 284.228 -37.727 284.228 C-40.649 284.227 -43.57 284.211 -46.492 284.195 C-48.524 284.192 -50.556 284.189 -52.587 284.187 C-57.924 284.179 -63.26 284.159 -68.596 284.137 C-74.046 284.117 -79.496 284.108 -84.945 284.098 C-95.63 284.076 -106.315 284.042 -117 284 C-117.257 258.47 -117.451 232.94 -117.57 207.409 C-117.627 195.555 -117.704 183.701 -117.83 171.846 C-117.94 161.513 -118.01 151.18 -118.035 140.846 C-118.049 135.375 -118.083 129.906 -118.163 124.435 C-118.238 119.283 -118.261 114.132 -118.244 108.979 C-118.247 107.091 -118.269 105.203 -118.311 103.316 C-118.614 89.078 -118.614 89.078 -114.625 83.943 C-111.853 81.641 -109.111 79.807 -106 78 C-104.489 76.891 -102.989 75.768 -101.508 74.621 C-100.049 73.557 -98.588 72.496 -97.125 71.438 C-90.187 66.372 -83.32 61.224 -76.5 56 C-69.114 50.346 -61.668 44.785 -54.164 39.289 C-47.334 34.274 -40.599 29.138 -33.871 23.987 C-27.015 18.749 -20.093 13.607 -13.127 8.516 C-12.394 7.979 -11.661 7.443 -10.906 6.891 C-10.567 6.642 -10.567 6.642 -8.848 5.385 C-7.228 4.171 -5.657 2.895 -4.094 1.609 C-2 0 -2 0 0 0 Z " fill="#34A852" transform="translate(512,164)"/>
<path d="M0 0 C0.866 0.657 1.731 1.313 2.623 1.99 C8.08 6.13 13.525 10.286 18.954 14.463 C20.596 15.697 22.291 16.861 24 18 C24.369 20.604 24.369 20.604 24.361 23.973 C24.365 25.246 24.369 26.52 24.373 27.831 C24.363 29.25 24.352 30.669 24.341 32.088 C24.34 33.576 24.34 35.064 24.342 36.552 C24.343 40.6 24.325 44.647 24.304 48.694 C24.285 52.921 24.284 57.148 24.28 61.374 C24.271 69.382 24.246 77.389 24.216 85.397 C24.183 94.512 24.166 103.626 24.151 112.741 C24.12 131.494 24.067 150.247 24 169 C20.82 168.277 18.816 167.364 16.191 165.402 C15.455 164.856 14.719 164.311 13.961 163.748 C13.169 163.151 12.378 162.553 11.562 161.938 C11.145 161.627 11.145 161.627 9.035 160.053 C1.932 154.741 -5.116 149.355 -12.16 143.965 C-17.896 139.581 -23.676 135.266 -29.5 131 C-37.121 125.418 -44.645 119.716 -52.146 113.974 C-58.827 108.869 -65.578 103.867 -72.359 98.896 C-90.21 85.79 -90.21 85.79 -93 83 C-93.115 81.29 -93.16 79.574 -93.177 77.86 C-93.19 76.761 -93.203 75.662 -93.216 74.53 C-93.223 73.329 -93.231 72.128 -93.238 70.891 C-93.246 69.658 -93.254 68.425 -93.263 67.154 C-93.277 64.532 -93.287 61.909 -93.295 59.286 C-93.308 55.309 -93.356 51.332 -93.4 47.355 C-93.411 44.805 -93.419 42.254 -93.426 39.703 C-93.443 38.527 -93.461 37.35 -93.479 36.138 C-93.443 22.116 -89.216 10.055 -79.816 -0.438 C-55.331 -24.239 -24.899 -19 0 0 Z " fill="#C5221F" transform="translate(93,80)"/>
<path d="M0 0 C12.881 8.285 21.458 20.047 24.75 35.188 C25.459 42.589 25.628 50.048 25.817 57.477 C25.904 60.847 26.027 64.207 26.238 67.571 C27.498 89.247 27.498 89.247 22.99 95.711 C18.586 100.074 13.508 103.083 8.046 105.947 C5.107 107.535 2.565 109.468 -0.031 111.562 C-0.82 112.167 -1.608 112.772 -2.42 113.395 C-3.189 113.986 -3.958 114.578 -4.75 115.188 C-12.135 120.843 -19.582 126.402 -27.086 131.898 C-33.027 136.26 -38.897 140.708 -44.75 145.188 C-52.242 150.921 -59.788 156.572 -67.398 162.149 C-73.454 166.589 -79.464 171.087 -85.441 175.634 C-90.142 179.188 -90.142 179.188 -91.25 179.188 C-91.826 159.613 -92.291 140.038 -92.626 120.458 C-92.784 111.365 -92.977 102.275 -93.256 93.185 C-93.499 85.256 -93.674 77.33 -93.769 69.398 C-93.821 65.201 -93.906 61.011 -94.074 56.818 C-95.056 31.407 -95.056 31.407 -90.44 24.464 C-86.119 20.021 -81.23 17.144 -75.686 14.467 C-71.684 12.365 -68.31 9.526 -64.812 6.688 C-45.264 -8.166 -22.012 -12.384 0 0 Z " fill="#FABB04" transform="translate(487.25,70.8125)"/>
</svg>
