<?xml version="1.0" encoding="UTF-8"?>
<!-- Generator: visioncortex VTracer 0.6.12 -->
<svg version="1.1" xmlns="http://www.w3.org/2000/svg" width="512" height="512">
<path d="M0 0 C1.018 0.002 2.036 0.004 3.085 0.007 C17.694 0.056 32.026 0.307 46.375 3.312 C47.35 3.511 48.325 3.71 49.329 3.915 C97.711 14.035 141.699 35.952 177.375 70.312 C177.705 70.629 177.705 70.629 179.373 72.228 C188.861 81.372 197.601 90.67 205.375 101.312 C206.233 102.464 207.091 103.615 207.949 104.766 C213.987 112.957 219.346 121.471 224.375 130.312 C224.739 130.944 225.104 131.576 225.479 132.227 C247.085 169.975 256.852 212.742 256.688 255.938 C256.685 256.955 256.683 257.973 256.681 259.022 C256.631 273.631 256.38 287.963 253.375 302.312 C253.276 302.8 253.276 302.8 252.773 305.267 C242.652 353.648 220.736 397.637 186.375 433.312 C185.743 433.972 185.111 434.631 184.459 435.311 C175.315 444.799 166.018 453.539 155.375 461.312 C154.224 462.171 153.073 463.029 151.922 463.887 C143.732 469.924 135.23 475.307 126.375 480.312 C125.668 480.715 124.961 481.117 124.232 481.531 C101.097 494.557 75.925 503.306 49.938 508.625 C49.219 508.772 48.5 508.92 47.759 509.072 C33.083 511.861 18.558 512.661 3.648 512.628 C0.708 512.625 -2.23 512.649 -5.17 512.674 C-18.543 512.718 -31.439 511.513 -44.625 509.312 C-45.194 509.218 -45.194 509.218 -48.071 508.742 C-91.338 500.97 -132.388 480.983 -165.625 452.312 C-166.37 451.678 -167.115 451.044 -167.883 450.391 C-181.388 438.579 -194.059 425.829 -204.625 411.312 C-205.481 410.163 -206.338 409.013 -207.195 407.863 C-213.235 399.673 -218.619 391.169 -223.625 382.312 C-224.027 381.605 -224.429 380.898 -224.844 380.169 C-237.869 357.034 -246.618 331.863 -251.938 305.875 C-252.085 305.156 -252.232 304.437 -252.384 303.697 C-255.358 288.05 -255.998 272.577 -255.938 256.688 C-255.935 255.67 -255.933 254.652 -255.931 253.603 C-255.881 238.994 -255.63 224.662 -252.625 210.312 C-252.426 209.338 -252.228 208.363 -252.023 207.358 C-241.902 158.977 -219.986 114.988 -185.625 79.312 C-184.993 78.653 -184.361 77.994 -183.709 77.314 C-174.565 67.826 -165.268 59.086 -154.625 51.312 C-153.474 50.454 -152.323 49.596 -151.172 48.738 C-142.982 42.701 -134.48 37.318 -125.625 32.312 C-124.918 31.91 -124.211 31.508 -123.482 31.094 C-100.347 18.068 -75.175 9.319 -49.188 4 C-48.469 3.853 -47.75 3.705 -47.009 3.553 C-31.363 0.58 -15.889 -0.061 0 0 Z " fill="#1A73E8" transform="translate(255.625,-0.3125)"/>
<path d="M0 0 C0.753 0 1.507 0 2.283 0.001 C22.763 0.057 42.866 2.561 62.25 9.375 C62.91 9.599 63.569 9.823 64.249 10.054 C85.953 17.472 107.961 28.196 119.961 48.723 C120.386 49.598 120.812 50.473 121.25 51.375 C121.518 51.92 121.518 51.92 122.875 54.676 C125.038 60.652 124.845 67.03 124.861 73.309 C124.875 75.476 124.942 77.638 125.012 79.805 C125.185 90.929 122.719 100.062 115.238 108.697 C107.228 116.439 97.717 119.525 86.813 119.522 C86.074 119.526 85.334 119.53 84.572 119.533 C82.098 119.544 79.624 119.548 77.15 119.552 C75.374 119.558 73.598 119.565 71.822 119.572 C65.993 119.593 60.165 119.603 54.336 119.613 C52.326 119.617 50.317 119.621 48.307 119.626 C38.863 119.645 29.419 119.659 19.976 119.667 C9.09 119.677 -1.796 119.703 -12.682 119.744 C-21.106 119.774 -29.53 119.789 -37.954 119.792 C-42.981 119.794 -48.008 119.803 -53.034 119.828 C-57.767 119.852 -62.499 119.856 -67.232 119.846 C-68.963 119.845 -70.693 119.851 -72.424 119.865 C-86.791 119.973 -97.714 117.908 -108.434 107.785 C-116.58 99.151 -117.424 89.098 -117.326 77.753 C-117.313 75.51 -117.347 73.271 -117.385 71.027 C-117.468 55.59 -112.209 45.193 -101.539 34.07 C-75.492 9.062 -34.955 -0.092 0 0 Z " fill="#FEFEFE" transform="translate(253.75,267.625)"/>
<path d="M0 0 C12.407 8.625 20.777 20.343 24.656 34.992 C25.225 38.856 25.247 42.662 25.25 46.562 C25.262 47.331 25.274 48.1 25.287 48.893 C25.325 63.726 18.873 76.172 9.035 86.977 C-2.8 98.393 -17.177 102.203 -33.163 102.184 C-41.416 102.026 -47.641 100.807 -54.938 96.75 C-55.429 96.479 -55.429 96.479 -57.914 95.105 C-70.75 87.442 -79.555 76.145 -83.938 61.75 C-87.383 45.345 -84.502 29.959 -75.938 15.75 C-57.561 -8.852 -26.482 -15.801 0 0 Z " fill="#FEFEFE" transform="translate(285.9375,133.25)"/>
<path d="M0 0 C2.169 2.169 2.855 3.829 4.062 6.625 C8.118 14.854 14.548 19.893 22.957 23.309 C27.469 24.835 31.571 25.146 36.323 25.14 C37.063 25.143 37.802 25.146 38.564 25.149 C41.044 25.158 43.523 25.16 46.002 25.161 C47.78 25.166 49.557 25.171 51.335 25.176 C56.166 25.189 60.996 25.196 65.827 25.2 C68.847 25.203 71.867 25.207 74.887 25.212 C84.341 25.225 93.795 25.235 103.249 25.239 C114.152 25.243 125.055 25.261 135.958 25.29 C144.391 25.312 152.824 25.322 161.258 25.323 C166.292 25.324 171.325 25.33 176.359 25.348 C181.099 25.364 185.838 25.366 190.577 25.358 C192.311 25.357 194.045 25.361 195.779 25.371 C209.328 25.444 220.512 24.456 231 15 C232.778 12.747 234.297 10.491 235.746 8.016 C236.985 6.024 238.243 4.547 240 3 C240.33 3 240.66 3 241 3 C241.752 13.006 239.055 20.266 232.809 28.086 C224.616 36.756 213.804 40.939 201.974 41.459 C198.168 41.546 194.365 41.538 190.558 41.518 C188.842 41.523 187.126 41.53 185.409 41.539 C180.785 41.557 176.162 41.55 171.538 41.537 C166.677 41.527 161.817 41.537 156.956 41.543 C148.799 41.55 140.641 41.541 132.483 41.521 C123.077 41.5 113.671 41.507 104.265 41.529 C96.16 41.547 88.055 41.549 79.95 41.539 C75.122 41.533 70.294 41.532 65.466 41.545 C60.926 41.557 56.386 41.549 51.846 41.526 C50.189 41.52 48.531 41.522 46.874 41.531 C32.601 41.6 20.065 39.436 9.254 29.375 C3.202 22.855 -0.158 14.66 -0.062 5.812 C-0.053 4.726 -0.044 3.639 -0.035 2.52 C-0.024 1.688 -0.012 0.857 0 0 Z " fill="#185BBD" transform="translate(137,361)"/>
<path d="M0 0 C2.083 3.125 3.253 6.071 4.625 9.562 C10.393 23.438 20.575 33.09 34.359 38.992 C35.231 39.325 36.102 39.657 37 40 C37.869 40.366 38.738 40.732 39.633 41.109 C51.451 44.235 67.084 43.506 78 38 C78.517 37.74 78.517 37.74 81.133 36.422 C95.857 28.391 104.13 15.986 109 0 C109.33 0 109.66 0 110 0 C110.769 14.729 106.441 28.078 96.688 39.312 C89.347 46.959 81.893 52.144 72 56 C71.118 56.366 70.237 56.732 69.328 57.109 C56.864 60.445 42.279 59.179 31 53 C30.04 52.481 29.079 51.961 28.09 51.426 C15.12 43.772 5.738 32.517 1.488 17.941 C-0.03 11.905 -0.11 6.192 0 0 Z " fill="#1B5CBD" transform="translate(201,192)"/>
</svg>
