<?xml version="1.0" encoding="UTF-8"?>
<!-- Generator: visioncortex VTracer 0.6.12 -->
<svg version="1.1" xmlns="http://www.w3.org/2000/svg" width="512" height="512">
<path d="M0 0 C1.018 0.002 2.036 0.004 3.085 0.007 C17.694 0.056 32.026 0.307 46.375 3.312 C47.35 3.511 48.325 3.71 49.329 3.915 C97.711 14.035 141.699 35.952 177.375 70.312 C177.705 70.629 177.705 70.629 179.373 72.228 C188.861 81.372 197.601 90.67 205.375 101.312 C206.233 102.464 207.091 103.615 207.949 104.766 C213.987 112.957 219.346 121.471 224.375 130.312 C224.739 130.944 225.104 131.576 225.479 132.227 C247.085 169.975 256.852 212.742 256.688 255.938 C256.685 256.955 256.683 257.973 256.681 259.022 C256.631 273.631 256.38 287.963 253.375 302.312 C253.276 302.8 253.276 302.8 252.773 305.267 C242.652 353.648 220.736 397.637 186.375 433.312 C185.743 433.972 185.111 434.631 184.459 435.311 C175.315 444.799 166.018 453.539 155.375 461.312 C154.224 462.171 153.073 463.029 151.922 463.887 C143.732 469.924 135.23 475.307 126.375 480.312 C125.668 480.715 124.961 481.117 124.232 481.531 C101.097 494.557 75.925 503.306 49.938 508.625 C49.219 508.772 48.5 508.92 47.759 509.072 C33.083 511.861 18.558 512.661 3.648 512.628 C0.708 512.625 -2.23 512.649 -5.17 512.674 C-18.543 512.718 -31.439 511.513 -44.625 509.312 C-45.194 509.218 -45.194 509.218 -48.071 508.742 C-91.338 500.97 -132.388 480.983 -165.625 452.312 C-166.37 451.678 -167.115 451.044 -167.883 450.391 C-181.388 438.579 -194.059 425.829 -204.625 411.312 C-205.481 410.163 -206.338 409.013 -207.195 407.863 C-213.235 399.673 -218.619 391.169 -223.625 382.312 C-224.027 381.605 -224.429 380.898 -224.844 380.169 C-237.869 357.034 -246.618 331.863 -251.938 305.875 C-252.085 305.156 -252.232 304.437 -252.384 303.697 C-255.358 288.05 -255.998 272.577 -255.938 256.688 C-255.935 255.67 -255.933 254.652 -255.931 253.603 C-255.881 238.994 -255.63 224.662 -252.625 210.312 C-252.426 209.338 -252.228 208.363 -252.023 207.358 C-241.902 158.977 -219.986 114.988 -185.625 79.312 C-184.993 78.653 -184.361 77.994 -183.709 77.314 C-174.565 67.826 -165.268 59.086 -154.625 51.312 C-153.474 50.454 -152.323 49.596 -151.172 48.738 C-142.982 42.701 -134.48 37.318 -125.625 32.312 C-124.918 31.91 -124.211 31.508 -123.482 31.094 C-100.347 18.068 -75.175 9.319 -49.188 4 C-48.469 3.853 -47.75 3.705 -47.009 3.553 C-31.363 0.58 -15.889 -0.061 0 0 Z " fill="#DB4C26" transform="translate(255.625,-0.3125)"/>
<path d="M0 0 C1.018 0.002 2.036 0.004 3.085 0.007 C17.694 0.056 32.026 0.307 46.375 3.312 C47.35 3.511 48.325 3.71 49.329 3.915 C97.711 14.035 141.699 35.952 177.375 70.312 C177.705 70.629 177.705 70.629 179.373 72.228 C188.861 81.372 197.601 90.67 205.375 101.312 C206.233 102.464 207.091 103.615 207.949 104.766 C213.987 112.957 219.346 121.471 224.375 130.312 C224.739 130.944 225.104 131.576 225.479 132.227 C247.085 169.975 256.852 212.742 256.688 255.938 C256.685 256.955 256.683 257.973 256.681 259.022 C256.631 273.631 256.38 287.963 253.375 302.312 C253.276 302.8 253.276 302.8 252.773 305.267 C242.652 353.648 220.736 397.637 186.375 433.312 C185.743 433.972 185.111 434.631 184.459 435.311 C175.315 444.799 166.018 453.539 155.375 461.312 C154.224 462.171 153.073 463.029 151.922 463.887 C143.732 469.924 135.23 475.307 126.375 480.312 C125.668 480.715 124.961 481.117 124.232 481.531 C101.097 494.557 75.925 503.306 49.938 508.625 C49.219 508.772 48.5 508.92 47.759 509.072 C33.083 511.861 18.558 512.661 3.648 512.628 C0.708 512.625 -2.23 512.649 -5.17 512.674 C-18.543 512.718 -31.439 511.513 -44.625 509.312 C-45.194 509.218 -45.194 509.218 -48.071 508.742 C-91.338 500.97 -132.388 480.983 -165.625 452.312 C-166.37 451.678 -167.115 451.044 -167.883 450.391 C-181.388 438.579 -194.059 425.829 -204.625 411.312 C-205.481 410.163 -206.338 409.013 -207.195 407.863 C-213.235 399.673 -218.619 391.169 -223.625 382.312 C-224.027 381.605 -224.429 380.898 -224.844 380.169 C-237.869 357.034 -246.618 331.863 -251.938 305.875 C-252.085 305.156 -252.232 304.437 -252.384 303.697 C-255.358 288.05 -255.998 272.577 -255.938 256.688 C-255.935 255.67 -255.933 254.652 -255.931 253.603 C-255.881 238.994 -255.63 224.662 -252.625 210.312 C-252.426 209.338 -252.228 208.363 -252.023 207.358 C-241.902 158.977 -219.986 114.988 -185.625 79.312 C-184.993 78.653 -184.361 77.994 -183.709 77.314 C-174.565 67.826 -165.268 59.086 -154.625 51.312 C-153.474 50.454 -152.323 49.596 -151.172 48.738 C-142.982 42.701 -134.48 37.318 -125.625 32.312 C-124.918 31.91 -124.211 31.508 -123.482 31.094 C-100.347 18.068 -75.175 9.319 -49.188 4 C-48.469 3.853 -47.75 3.705 -47.009 3.553 C-31.363 0.58 -15.889 -0.061 0 0 Z M-40.625 35.312 C-40.99 35.379 -40.99 35.379 -42.838 35.718 C-86.299 43.995 -124.81 66.153 -156.625 96.312 C-157.127 96.786 -157.629 97.259 -158.146 97.746 C-192.495 130.35 -213.413 175.109 -221.625 221.312 C-221.755 222.003 -221.885 222.693 -222.019 223.404 C-231.976 278.256 -215.639 337.997 -184.625 383.312 C-181.771 387.431 -178.761 391.404 -175.625 395.312 C-174.821 396.321 -174.016 397.329 -173.188 398.367 C-162.721 411.223 -150.886 423.343 -137.625 433.312 C-137.116 433.699 -137.116 433.699 -134.543 435.652 C-90.647 468.312 -90.647 468.312 -71.625 468.312 C-72.973 457.675 -74.991 447.286 -77.25 436.812 C-77.605 435.149 -77.96 433.485 -78.314 431.822 C-79.049 428.373 -79.786 424.924 -80.524 421.476 C-81.589 416.489 -82.639 411.499 -83.684 406.508 C-86.921 391.045 -90.208 375.596 -93.62 360.17 C-96.085 349.005 -98.351 337.806 -100.564 326.588 C-102.608 316.238 -104.773 305.925 -107.062 295.625 C-110.715 279.148 -114.079 262.617 -117.301 246.05 C-118.169 241.596 -119.074 237.153 -120.02 232.715 C-125.659 205.276 -125.438 175.425 -109.625 151.312 C-96.397 133.273 -75.196 123.62 -53.539 119.96 C-51.904 119.724 -50.265 119.515 -48.625 119.312 C-48.955 118.653 -49.285 117.993 -49.625 117.312 C-51.973 116.701 -54.239 116.222 -56.625 115.812 C-57.347 115.686 -58.069 115.559 -58.813 115.428 C-61.081 115.041 -63.352 114.674 -65.625 114.312 C-66.273 114.207 -66.273 114.207 -69.555 113.676 C-102.229 109.114 -102.229 109.114 -110.625 113.312 C-109.494 108.411 -108.604 105.456 -104.625 102.312 C-102.024 101.458 -99.593 100.769 -96.938 100.188 C-94.467 99.628 -92.063 99.012 -89.625 98.312 C-89.295 97.653 -88.965 96.993 -88.625 96.312 C-95.225 93.672 -101.825 91.032 -108.625 88.312 C-80.959 79.09 -49.816 86.893 -24.355 98.848 C-16.202 103.035 -7.105 108.393 -1.875 116.062 C1.37 120.223 6.123 121.049 10.983 122.397 C23.281 125.854 33.777 131.515 41.688 141.75 C42.168 142.371 42.649 142.992 43.144 143.633 C62.399 168.894 74.618 199.694 74.5 231.562 C74.504 232.625 74.508 233.687 74.512 234.781 C74.511 235.294 74.511 235.294 74.508 237.891 C74.507 238.813 74.506 239.735 74.504 240.685 C74.375 243.319 73.959 245.744 73.375 248.312 C62.081 250.965 51.157 252.577 39.562 253.188 C19.589 254.383 5.14 261.95 -8.918 276.27 C-12.28 280.293 -13.14 283.524 -12.996 288.688 C-11.648 298.223 -6.566 305.862 0.375 312.312 C1.035 312.642 1.695 312.973 2.375 313.312 C2.344 314.14 2.312 314.968 2.28 315.822 C1.225 348.114 8.272 376.453 20.375 406.312 C19.769 406.338 19.163 406.364 18.539 406.391 C11.824 406.845 6.499 408.616 0.375 411.312 C-2.625 412.312 -2.625 412.312 -6.266 410.723 C-7.805 409.945 -9.341 409.162 -10.875 408.375 C-18.367 404.684 -25.936 401.528 -33.812 398.75 C-34.767 398.404 -35.722 398.058 -36.706 397.701 C-42.226 395.801 -46.782 394.737 -52.625 395.312 C-55.415 398.103 -54.898 399.834 -54.926 403.742 C-54.931 404.396 -54.937 405.05 -54.942 405.724 C-54.954 407.879 -54.948 410.033 -54.938 412.188 C-54.937 412.555 -54.937 412.555 -54.934 414.413 C-54.901 424.921 -54.422 435.295 -53.312 445.75 C-53.195 446.872 -53.077 447.994 -52.956 449.15 C-50.96 465.977 -50.96 465.977 -47.625 469.312 C-34.24 468.874 -19.79 461.181 -8.594 454.012 C-5.5 452.913 -2.822 453.764 0.375 454.312 C10.97 454.885 22.247 455.234 31.5 449.312 C33.375 447.313 33.375 447.313 35.375 444.312 C37.168 444.439 37.168 444.439 39.375 445.312 C41.051 447.889 41.051 447.889 42.688 451.281 C42.983 451.877 43.279 452.472 43.583 453.086 C44.847 455.633 46.078 458.195 47.312 460.756 C48.217 462.625 49.139 464.484 50.062 466.344 C50.603 467.463 51.143 468.583 51.699 469.736 C53.375 472.312 53.375 472.312 55.422 473.219 C60.525 473.464 65.609 470.959 70.375 469.312 C71.087 469.07 71.798 468.827 72.532 468.577 C96.949 460.169 119.185 448.51 139.375 432.312 C140.383 431.508 141.391 430.704 142.43 429.875 C155.286 419.408 167.405 407.574 177.375 394.312 C178.147 393.295 178.919 392.278 179.715 391.23 C214.098 345.035 230.761 286.559 223.45 229.162 C222.858 225.191 222.157 221.251 221.375 217.312 C221.135 216.041 220.895 214.77 220.648 213.461 C219.962 210.057 219.194 206.687 218.375 203.312 C218.1 202.151 217.826 200.99 217.543 199.793 C205.355 151.092 175.045 105.862 134.375 76.312 C133.331 75.547 132.287 74.781 131.211 73.992 C103.517 54.27 72.721 41.569 39.375 35.312 C38.965 35.23 38.965 35.23 36.893 34.812 C11.973 29.862 -15.741 30.615 -40.625 35.312 Z " fill="#FEFDFD" transform="translate(255.625,-0.3125)"/>
<path d="M0 0 C1.018 0.002 2.036 0.004 3.085 0.007 C17.694 0.056 32.026 0.307 46.375 3.312 C47.35 3.511 48.325 3.71 49.329 3.915 C97.711 14.035 141.699 35.952 177.375 70.312 C177.705 70.629 177.705 70.629 179.373 72.228 C188.861 81.372 197.601 90.67 205.375 101.312 C206.233 102.464 207.091 103.615 207.949 104.766 C213.987 112.957 219.346 121.471 224.375 130.312 C224.739 130.944 225.104 131.576 225.479 132.227 C247.085 169.975 256.852 212.742 256.688 255.938 C256.685 256.955 256.683 257.973 256.681 259.022 C256.631 273.631 256.38 287.963 253.375 302.312 C253.276 302.8 253.276 302.8 252.773 305.267 C242.652 353.648 220.736 397.637 186.375 433.312 C185.743 433.972 185.111 434.631 184.459 435.311 C175.315 444.799 166.018 453.539 155.375 461.312 C154.224 462.171 153.073 463.029 151.922 463.887 C143.732 469.924 135.23 475.307 126.375 480.312 C125.668 480.715 124.961 481.117 124.232 481.531 C101.097 494.557 75.925 503.306 49.938 508.625 C49.219 508.772 48.5 508.92 47.759 509.072 C33.083 511.861 18.558 512.661 3.648 512.628 C0.708 512.625 -2.23 512.649 -5.17 512.674 C-18.543 512.718 -31.439 511.513 -44.625 509.312 C-45.194 509.218 -45.194 509.218 -48.071 508.742 C-91.338 500.97 -132.388 480.983 -165.625 452.312 C-166.37 451.678 -167.115 451.044 -167.883 450.391 C-181.388 438.579 -194.059 425.829 -204.625 411.312 C-205.481 410.163 -206.338 409.013 -207.195 407.863 C-213.235 399.673 -218.619 391.169 -223.625 382.312 C-224.027 381.605 -224.429 380.898 -224.844 380.169 C-237.869 357.034 -246.618 331.863 -251.938 305.875 C-252.085 305.156 -252.232 304.437 -252.384 303.697 C-255.358 288.05 -255.998 272.577 -255.938 256.688 C-255.935 255.67 -255.933 254.652 -255.931 253.603 C-255.881 238.994 -255.63 224.662 -252.625 210.312 C-252.426 209.338 -252.228 208.363 -252.023 207.358 C-241.902 158.977 -219.986 114.988 -185.625 79.312 C-184.993 78.653 -184.361 77.994 -183.709 77.314 C-174.565 67.826 -165.268 59.086 -154.625 51.312 C-153.474 50.454 -152.323 49.596 -151.172 48.738 C-142.982 42.701 -134.48 37.318 -125.625 32.312 C-124.918 31.91 -124.211 31.508 -123.482 31.094 C-100.347 18.068 -75.175 9.319 -49.188 4 C-48.469 3.853 -47.75 3.705 -47.009 3.553 C-31.363 0.58 -15.889 -0.061 0 0 Z M-62.632 29.685 C-64.693 30.334 -66.764 30.905 -68.852 31.461 C-92.653 37.867 -115.713 49.884 -135.625 64.312 C-136.186 64.718 -136.747 65.124 -137.326 65.542 C-144.557 70.824 -151.273 76.539 -157.793 82.672 C-160.353 85.058 -162.974 87.342 -165.625 89.625 C-171.934 95.297 -177.266 101.759 -182.625 108.312 C-183.042 108.816 -183.042 108.816 -185.152 111.363 C-223.46 159.232 -240.452 222.082 -233.801 282.778 C-233.209 287.316 -232.454 291.813 -231.625 296.312 C-231.464 297.228 -231.303 298.143 -231.137 299.086 C-223.371 342.23 -203.139 382.861 -173.051 414.734 C-170.938 416.98 -168.927 419.272 -166.938 421.625 C-163.48 425.595 -159.647 428.929 -155.625 432.312 C-154.689 433.136 -153.753 433.96 -152.789 434.809 C-116.393 466.668 -71.352 484.673 -23.625 490.312 C-22.951 490.405 -22.277 490.498 -21.582 490.594 C9.651 494.644 42.689 490.336 72.375 480.312 C72.762 480.185 72.762 480.185 74.723 479.541 C106.123 469.105 134.737 452.451 158.797 429.738 C161.042 427.626 163.334 425.615 165.688 423.625 C169.657 420.168 172.992 416.335 176.375 412.312 C177.199 411.377 178.022 410.441 178.871 409.477 C200.388 384.896 214.981 356.112 225.375 325.312 C225.575 324.732 225.575 324.732 226.586 321.793 C244.831 263.773 236.067 198.995 208.297 145.68 C198.89 128.125 187.466 112.48 173.859 97.984 C171.795 95.765 169.824 93.507 167.875 91.188 C151.789 72.744 129.871 58.61 108.375 47.312 C108.025 47.128 108.025 47.128 106.253 46.192 C87.851 36.619 67.902 29.951 47.559 25.969 C44.375 25.312 44.375 25.312 42.375 24.312 C9.318 17.102 -30.564 19.248 -62.632 29.685 Z " fill="#DB4B27" transform="translate(255.625,-0.3125)"/>
<path d="M0 0 C1.775 1.167 3.375 2.441 4.879 3.945 C4.879 7.247 4.802 9.869 2.577 12.463 C-2.085 16.417 -6.892 19.146 -12.434 21.695 C-13.347 22.121 -14.261 22.546 -15.203 22.985 C-35.801 32.406 -57.28 39.51 -78.77 46.574 C-79.454 46.8 -80.138 47.025 -80.843 47.258 C-85.96 48.93 -90.16 50.072 -95.551 50.078 C-96.072 50.079 -96.072 50.079 -98.711 50.082 C-99.253 50.08 -99.253 50.08 -101.996 50.07 C-103.072 50.074 -104.149 50.078 -105.258 50.082 C-110.334 50.076 -115.128 49.958 -120.121 48.945 C-124.95 48.454 -128.19 48.454 -132.559 50.758 C-135.345 53.136 -136.943 54.75 -137.492 58.434 C-137.603 63.133 -137.565 66.146 -135.246 70.32 C-124.249 80.891 -106.922 81.469 -92.531 81.439 C-75.671 81.012 -58.977 77.265 -42.684 73.133 C-34.925 71.167 -27.142 69.509 -19.121 70.945 C-16.831 72.675 -16.231 73.438 -15.621 76.258 C-16.554 81.275 -20.199 84.301 -24.215 87.105 C-58.101 106.031 -90.729 104.793 -127.182 94.668 C-133.863 92.774 -140.449 90.634 -146.996 88.32 C-147.992 87.973 -148.989 87.625 -150.015 87.267 C-160.843 83.281 -170.078 77.448 -175.664 67.082 C-178.357 61.145 -180.499 55.492 -179.121 48.945 C-177.621 45.883 -177.621 45.883 -175.121 42.945 C-174.608 42.342 -174.095 41.739 -173.566 41.117 C-167.698 34.72 -160.624 30.176 -153.121 25.945 C-152.183 25.414 -151.244 24.883 -150.277 24.336 C-141.677 20.319 -132.812 20.222 -123.464 19.671 C-113.041 19.036 -103.263 17.344 -93.121 14.945 C-92.568 14.818 -92.568 14.818 -89.769 14.174 C-72.734 10.252 -55.767 6.112 -39.285 0.238 C-25.994 -4.481 -13.369 -6.648 0 0 Z " fill="#FCD00A" transform="translate(422.12109375,233.0546875)"/>
<path d="M0 0 C4.969 3.597 5.541 10.933 6.636 16.617 C7.634 23.156 7.509 29.778 7.412 36.375 C7.375 38.96 7.371 41.542 7.371 44.127 C7.361 45.802 7.35 47.477 7.336 49.152 C7.334 49.909 7.331 50.665 7.329 51.445 C7.215 57.986 6.688 64.469 3 70 C-3.262 71.318 -9.581 69.289 -15.5 67.375 C-15.929 67.242 -15.929 67.242 -18.1 66.57 C-24.679 64.505 -31.188 62.233 -37.619 59.742 C-40.303 58.739 -42.475 57.957 -45.359 58.191 C-47 59 -47 59 -48.75 61.375 C-52.916 66.235 -58.841 67.183 -65 68 C-67.658 68.092 -70.282 68.14 -72.938 68.125 C-73.615 68.129 -74.292 68.133 -74.99 68.137 C-78.299 68.13 -81.28 67.942 -84.527 67.27 C-89.008 66.922 -91.832 68.436 -95.625 70.562 C-97.03 71.308 -98.437 72.051 -99.844 72.793 C-100.54 73.166 -101.236 73.539 -101.953 73.923 C-104.968 75.509 -108.033 76.946 -111.125 78.375 C-112.118 78.836 -113.11 79.298 -114.133 79.773 C-119.263 81.968 -123.386 83.267 -129 83 C-138.235 67.469 -136.193 43.786 -136.25 26.25 C-136.255 25.507 -136.26 24.764 -136.266 23.999 C-136.277 21.879 -136.274 19.76 -136.266 17.641 C-136.263 16.409 -136.261 15.177 -136.259 13.907 C-136 11 -136 11 -134 9 C-127.119 8.323 -121.675 10.102 -115.25 12.438 C-114.252 12.787 -113.253 13.137 -112.224 13.497 C-107.132 15.325 -102.201 17.313 -97.332 19.676 C-96.443 20.105 -95.554 20.534 -94.638 20.977 C-92.959 21.807 -91.294 22.665 -89.647 23.556 C-84.113 26.316 -84.113 26.316 -80.822 25.382 C-78.803 24.353 -76.916 23.208 -75 22 C-67.395 19.457 -56.06 17.871 -48.586 21.016 C-48.324 21.178 -48.324 21.178 -47 22 C-47 22.99 -47 23.98 -47 25 C-41.532 21.972 -36.361 18.629 -31.188 15.125 C-6.929 -1.155 -6.929 -1.155 0 0 Z " fill="#65BB46" transform="translate(337,386)"/>
<path d="M0 0 C0.66 0.33 1.32 0.66 2 1 C1.481 1.545 0.961 2.091 0.426 2.652 C-15.722 20.113 -18.367 40.326 -17.552 63.331 C-16.629 81.102 -12.261 98.707 -8.611 116.073 C-7.65 120.677 -6.724 125.288 -5.797 129.898 C-4.071 138.453 -2.303 146.998 -0.515 155.539 C0.468 160.239 1.447 164.94 2.426 169.641 C2.637 170.654 2.848 171.668 3.066 172.713 C4.33 178.779 5.592 184.846 6.853 190.913 C14.967 229.964 14.967 229.964 18.742 247.462 C22.4 264.453 25.93 281.472 29.476 298.486 C29.975 300.879 30.474 303.271 30.973 305.663 C31.817 309.712 32.659 313.762 33.5 317.812 C33.743 318.979 33.986 320.146 34.236 321.347 C34.457 322.415 34.678 323.482 34.906 324.582 C35.001 325.037 35.001 325.037 35.479 327.339 C36.042 330.216 36.518 333.109 37 336 C35.02 335.505 35.02 335.505 25 333 C24.789 331.96 24.578 330.92 24.361 329.848 C17.308 295.108 17.308 295.108 13.875 279.938 C11.487 269.384 9.338 258.794 7.247 248.178 C5.633 240.028 3.899 231.915 2.062 223.812 C-0.27 213.509 -2.393 203.176 -4.438 192.812 C-6.646 181.615 -8.96 170.454 -11.438 159.312 C-15.09 142.835 -18.454 126.304 -21.676 109.737 C-22.544 105.284 -23.449 100.841 -24.395 96.402 C-29.933 69.456 -29.636 40.954 -15.212 16.819 C-11.777 11.664 -7.423 7.309 -3 3 C-2.398 2.398 -1.796 1.796 -1.176 1.176 C-0.788 0.788 -0.4 0.4 0 0 Z " fill="#D5D5D6" transform="translate(159,136)"/>
<path d="M0 0 C3.938 3.975 6.869 7.029 7.25 12.75 C7.16 18.257 5.196 21.651 1.562 25.75 C-2.64 29.44 -5.236 30.427 -10.98 30.246 C-15.726 29.668 -18.791 27.468 -21.812 23.938 C-25.316 19.232 -25.515 15.937 -25.48 10.125 C-24.692 4.997 -21.955 2.168 -18 -1 C-12.046 -4.572 -5.65 -3.726 0 0 Z " fill="#325391" transform="translate(203,207)"/>
<path d="M0 0 C3.636 1.354 6.347 3.263 8.938 6.188 C10.688 10.822 10.919 15.301 9.309 20.031 C7.751 23.107 6.055 24.961 3.25 26.938 C-1.417 28.463 -5.449 29.189 -9.961 27.086 C-14.044 24.415 -16.401 21.703 -18 17 C-18.528 12.774 -18.316 10.62 -16.375 6.812 C-11.758 1.345 -7.272 -1.39 0 0 Z " fill="#335491" transform="translate(306,197)"/>
<path d="M0 0 C0.02 0.797 0.04 1.594 0.06 2.415 C0.155 6.027 0.265 9.638 0.375 13.25 C0.406 14.504 0.437 15.759 0.469 17.051 C0.507 18.256 0.546 19.461 0.586 20.703 C0.617 21.813 0.649 22.924 0.681 24.067 C0.991 26.916 1.435 28.623 3 31 C6.521 32.76 10.559 32.19 14.438 32.188 C15.34 32.188 16.242 32.189 17.171 32.189 C23.614 32.138 29.738 31.609 36 30 C35.051 32.348 34.49 33.714 32.266 35.012 C31.6 35.235 30.935 35.458 30.25 35.688 C29.923 35.803 29.923 35.803 28.266 36.387 C22.841 37.855 17.534 38.182 11.938 38.188 C11.59 38.194 11.59 38.194 9.834 38.225 C5.79 38.236 2.512 38.085 -1 36 C-3.88 32.115 -4.384 29.282 -4.398 24.492 C-4.4 23.875 -4.4 23.875 -4.41 20.754 C-4.404 20.114 -4.404 20.114 -4.375 16.875 C-4.387 15.587 -4.398 14.299 -4.41 12.973 C-4.406 11.742 -4.402 10.511 -4.398 9.242 C-4.397 8.679 -4.397 8.679 -4.388 5.832 C-4 3 -4 3 -2.538 1.11 C-1 0 -1 0 0 0 Z " fill="#48A447" transform="translate(252,416)"/>
<path d="M0 0 C0.66 0.33 1.32 0.66 2 1 C1.763 1.217 1.763 1.217 0.562 2.312 C-1 4 -1 4 -2 7 C-1.205 6.984 -0.411 6.969 0.408 6.952 C22.086 6.581 40.446 8.649 61 16 C58 18 58 18 55.926 17.645 C55.063 17.37 54.201 17.095 53.312 16.812 C33.915 11.609 13.94 11.566 -6 12 C-5.405 6.189 -4.523 3.827 0 0 Z " fill="#D6D2D2" transform="translate(151,101)"/>
<path d="M0 0 C-3.607 1.202 -6.329 0.919 -10.125 0.75 C-16.905 0.626 -21.732 1.582 -27 6 C-29.22 8.196 -31.147 10.49 -33 13 C-33.549 13.731 -34.098 14.462 -34.664 15.215 C-35.105 15.804 -35.546 16.393 -36 17 C-36.345 12.158 -36.519 8.197 -34.562 3.688 C-24.669 -6.689 -11.602 -7.68 0 0 Z " fill="#5A6CB2" transform="translate(198,172)"/>
<path d="M0 0 C3.753 1.748 6.447 3.553 8.551 7.234 C8.221 7.894 7.891 8.554 7.551 9.234 C6.54 8.739 5.53 8.244 4.488 7.734 C-1.847 5.354 -8.796 5.495 -15.449 6.234 C-17.476 7.178 -19.483 8.17 -21.449 9.234 C-22.439 9.234 -23.429 9.234 -24.449 9.234 C-18.803 -0.321 -10.869 -3.398 0 0 Z " fill="#4656A6" transform="translate(301.44921875,162.765625)"/>
<path d="M0 0 C2.191 1.226 4.317 2.497 6.41 3.883 C3.586 4.824 1.881 5 -1.039 4.98 C-1.887 4.977 -2.734 4.974 -3.607 4.971 C-4.488 4.962 -5.37 4.954 -6.277 4.945 C-7.17 4.941 -8.063 4.936 -8.982 4.932 C-11.185 4.92 -13.387 4.903 -15.59 4.883 C-15.26 3.233 -14.93 1.583 -14.59 -0.117 C-9.598 -1.781 -4.908 -2.117 0 0 Z " fill="#5B69AF" transform="translate(191.58984375,168.1171875)"/>
<path d="M0 0 C0 0.66 0 1.32 0 2 C0.715 2.266 1.431 2.531 2.168 2.805 C5.069 4.029 7.63 5.48 10.312 7.125 C11.196 7.664 12.079 8.203 12.988 8.758 C13.32 8.963 13.32 8.963 15 10 C14.67 10.495 14.67 10.495 13 13 C12.34 12.67 11.68 12.34 11 12 C4.374 8.905 -2.253 5.824 -9 3 C-5.875 0.917 -3.729 0 0 0 Z " fill="#D8CECB" transform="translate(155,85)"/>
<path d="M0 0 C0 1.65 0 3.3 0 5 C2.97 5 5.94 5 9 5 C9 5.33 9 5.66 9 6 C8.203 6.037 7.407 6.075 6.586 6.113 C0.658 6.481 -3.789 6.927 -9 10 C-9.99 10 -10.98 10 -12 10 C-9.332 5.486 -5.867 0 0 0 Z " fill="#6879B9" transform="translate(289,162)"/>
<path d="M0 0 C0.66 0 1.32 0 2 0 C2.75 3.188 2.75 3.188 3 7 C1.25 9.688 1.25 9.688 -1 12 C-2.013 13.324 -3.015 14.656 -4 16 C-4.688 6.324 -4.688 6.324 -2.125 2.375 C-1.774 1.983 -1.774 1.983 0 0 Z " fill="#6679BA" transform="translate(166,173)"/>
<path d="M0 0 C2.625 0.375 2.625 0.375 5 1 C5.625 3.375 5.625 3.375 6 6 C4 8 4 8 1.438 8.188 C-1 8 -1 8 -2 7 C-2.188 4.562 -2.188 4.562 -2 2 C-1.34 1.34 -0.68 0.68 0 0 Z " fill="#F6F8FA" transform="translate(199,211)"/>
<path d="M0 0 C0.402 0.01 0.402 0.01 2.438 0.062 C3.062 2.438 3.062 2.438 3.438 5.062 C2.777 5.722 2.118 6.382 1.438 7.062 C-0.688 6.688 -0.688 6.688 -2.562 6.062 C-2.945 4.406 -3.276 2.738 -3.562 1.062 C-2.562 0.062 -2.562 0.062 0 0 Z " fill="#F0F2F6" transform="translate(308.5625,202.9375)"/>
<path d="M0 0 C0.66 0.33 1.32 0.66 2 1 C-0.649 4.017 -3.315 7.016 -6 10 C-6.508 10.565 -7.016 11.129 -7.539 11.711 C-8.812 13.062 -8.812 13.062 -11 15 C-11.99 15 -12.98 15 -14 15 C-12.23 13.062 -10.459 11.124 -8.688 9.188 C-8.188 8.64 -7.688 8.093 -7.174 7.529 C-4.831 4.969 -2.489 2.421 0 0 Z " fill="#D7CECC" transform="translate(159,136)"/>
<path d="M0 0 C2.31 0 4.62 0 7 0 C6.67 1.32 6.34 2.64 6 4 C3.69 4.33 1.38 4.66 -1 5 C-0.67 3.35 -0.34 1.7 0 0 Z " fill="#4657A7" transform="translate(177,168)"/>
<path d="M0 0 C-1.408 3.215 -3.103 5.322 -5.625 7.75 C-5.941 8.057 -5.941 8.057 -7.539 9.609 C-8.021 10.068 -8.503 10.527 -9 11 C-9 7.26 -8.066 6.547 -5.625 3.812 C-4.999 3.097 -4.372 2.382 -3.727 1.645 C-2 0 -2 0 0 0 Z " fill="#F5F2F2" transform="translate(164,134)"/>
<path d="M0 0 C1.32 0 2.64 0 4 0 C4 1.65 4 3.3 4 5 C2.68 5 1.36 5 0 5 C0 3.35 0 1.7 0 0 Z " fill="#495CA9" transform="translate(289,162)"/>
</svg>
