<?xml version="1.0" encoding="UTF-8"?>
<!-- Generator: visioncortex VTracer 0.6.12 -->
<svg version="1.1" xmlns="http://www.w3.org/2000/svg" width="512" height="512">
<path d="M0 0 C168.96 0 337.92 0 512 0 C512 168.96 512 337.92 512 512 C343.04 512 174.08 512 0 512 C0 343.04 0 174.08 0 0 Z " fill="#FBFCFC" transform="translate(0,0)"/>
<path d="M0 0 C4.238 2.273 7.652 4.776 11.355 7.832 C12.671 8.908 13.988 9.984 15.305 11.059 C15.961 11.598 16.618 12.137 17.294 12.692 C20.218 15.074 23.194 17.389 26.168 19.707 C31.257 23.693 36.287 27.743 41.293 31.832 C47.077 36.556 52.948 41.148 58.887 45.676 C63.418 49.191 67.85 52.823 72.289 56.453 C76.386 59.795 80.526 63.064 84.73 66.27 C90.347 70.551 95.823 74.983 101.289 79.453 C105.386 82.795 109.526 86.064 113.73 89.27 C119.34 93.546 124.817 97.966 130.267 102.442 C134.546 105.944 138.913 109.288 143.355 112.582 C150.991 118.432 155.228 123.989 158.23 133.27 C158.605 137.095 158.605 137.095 158.605 141.139 C158.612 142.681 158.619 144.223 158.626 145.812 C158.619 147.502 158.611 149.191 158.603 150.881 C158.605 152.676 158.609 154.47 158.614 156.264 C158.623 161.122 158.614 165.979 158.601 170.836 C158.589 175.925 158.593 181.014 158.595 186.102 C158.596 194.645 158.585 203.187 158.567 211.729 C158.545 221.602 158.542 231.475 158.548 241.347 C158.554 250.852 158.548 260.357 158.537 269.862 C158.532 273.905 158.532 277.947 158.534 281.989 C158.536 286.748 158.527 291.507 158.512 296.266 C158.507 298.011 158.506 299.757 158.509 301.502 C158.512 303.886 158.502 306.27 158.491 308.654 C158.489 309.988 158.487 311.322 158.485 312.696 C157.917 320.672 154.133 328.756 148.152 334.141 C139.248 340.383 130.68 341.715 120.054 341.657 C119.453 341.66 119.453 341.66 116.414 341.674 C112.402 341.688 108.391 341.681 104.379 341.674 C101.498 341.679 98.616 341.686 95.734 341.694 C87.916 341.712 80.098 341.711 72.28 341.705 C65.752 341.702 59.223 341.708 52.695 341.714 C36.413 341.729 20.131 341.726 3.849 341.714 C-10.279 341.704 -24.407 341.717 -38.536 341.741 C-53.057 341.765 -67.578 341.774 -82.099 341.768 C-90.246 341.765 -98.393 341.767 -106.54 341.784 C-114.2 341.8 -121.861 341.796 -129.521 341.777 C-132.331 341.773 -135.141 341.776 -137.95 341.787 C-141.789 341.8 -145.627 341.788 -149.466 341.771 C-150.575 341.78 -151.684 341.79 -152.826 341.8 C-163.275 341.701 -171.211 338.675 -178.859 331.418 C-185.202 324.284 -187.016 315.833 -187.044 306.59 C-187.049 305.738 -187.054 304.887 -187.06 304.01 C-187.074 301.21 -187.073 298.41 -187.07 295.609 C-187.074 293.657 -187.079 291.705 -187.083 289.752 C-187.091 285.666 -187.09 281.58 -187.085 277.494 C-187.079 272.259 -187.096 267.025 -187.12 261.791 C-187.134 257.761 -187.135 253.732 -187.132 249.702 C-187.133 247.772 -187.138 245.842 -187.148 243.912 C-187.16 241.214 -187.153 238.518 -187.142 235.82 C-187.142 234.286 -187.143 232.752 -187.144 231.171 C-186.765 227.221 -186.214 225.34 -183.77 222.27 C-179.778 219.609 -177.505 219.775 -172.77 220.27 C-167.422 223.964 -167.422 223.964 -165.77 227.27 C-165.668 229.979 -165.634 232.692 -165.628 235.404 C-165.626 235.824 -165.626 235.824 -165.617 237.952 C-165.61 239.781 -165.604 241.611 -165.601 243.44 C-165.594 246.336 -165.578 249.232 -165.56 252.127 C-165.507 260.362 -165.459 268.597 -165.444 276.832 C-165.434 281.866 -165.404 286.899 -165.362 291.933 C-165.35 293.852 -165.345 295.771 -165.347 297.69 C-165.349 300.376 -165.327 303.061 -165.3 305.747 C-165.297 306.512 -165.297 306.512 -165.282 310.379 C-164.719 314.654 -163.827 316.302 -160.77 319.27 C-156.869 321.22 -151.904 320.413 -147.591 320.41 C-147.002 320.411 -147.002 320.411 -144.02 320.419 C-140.044 320.428 -136.069 320.429 -132.093 320.431 C-129.253 320.435 -126.414 320.44 -123.574 320.446 C-115.841 320.459 -108.107 320.465 -100.374 320.47 C-95.547 320.473 -90.721 320.477 -85.894 320.481 C-72.536 320.493 -59.179 320.504 -45.822 320.507 C-44.966 320.507 -44.111 320.508 -43.23 320.508 C-42.372 320.508 -41.515 320.508 -40.632 320.508 C-38.894 320.509 -37.157 320.509 -35.419 320.51 C-34.557 320.51 -33.695 320.51 -32.808 320.51 C-18.84 320.514 -4.873 320.532 9.095 320.555 C23.427 320.579 37.759 320.591 52.091 320.592 C60.141 320.594 68.191 320.599 76.241 320.617 C83.811 320.634 91.381 320.636 98.951 320.627 C101.734 320.626 104.517 320.631 107.3 320.641 C111.09 320.653 114.881 320.647 118.671 320.637 C119.78 320.645 120.888 320.653 122.03 320.661 C131.691 320.599 131.691 320.599 135.23 317.27 C137.539 313.29 137.486 309.552 137.498 305.02 C137.506 303.54 137.515 302.059 137.524 300.534 C137.523 298.914 137.522 297.294 137.521 295.625 C137.527 293.898 137.534 292.172 137.541 290.445 C137.559 285.759 137.564 281.074 137.565 276.388 C137.567 272.476 137.574 268.564 137.581 264.653 C137.598 255.426 137.602 246.199 137.601 236.972 C137.6 227.451 137.621 217.93 137.653 208.409 C137.679 200.235 137.689 192.061 137.688 183.886 C137.688 179.004 137.693 174.122 137.715 169.24 C137.734 164.65 137.734 160.06 137.719 155.47 C137.716 152.982 137.733 150.494 137.75 148.005 C137.742 146.525 137.734 145.044 137.725 143.519 C137.726 142.232 137.727 140.945 137.728 139.619 C136.76 133.104 131.906 130.021 126.918 126.207 C121.819 122.271 116.752 118.305 111.73 114.27 C106.94 110.428 102.13 106.615 97.293 102.832 C92.204 98.846 87.174 94.796 82.168 90.707 C76.385 85.984 70.517 81.393 64.578 76.867 C60.723 73.875 56.943 70.799 53.168 67.707 C48.615 63.98 44.031 60.324 39.293 56.832 C34.32 53.157 29.549 49.28 24.793 45.332 C18.743 40.311 12.639 35.396 6.355 30.668 C4.149 28.974 1.985 27.223 -0.145 25.434 C-1.258 24.513 -2.372 23.593 -3.52 22.645 C-4.504 21.807 -5.489 20.969 -6.504 20.105 C-10.969 17.595 -13.714 17.568 -18.77 18.27 C-21.712 20.129 -23.93 21.779 -26.457 24.082 C-27.853 25.285 -29.25 26.487 -30.648 27.688 C-31.34 28.293 -32.031 28.898 -32.743 29.521 C-35.713 32.083 -38.798 34.488 -41.895 36.895 C-42.464 37.341 -42.464 37.341 -45.348 39.598 C-47.629 41.379 -49.91 43.16 -52.191 44.941 C-58.456 49.845 -64.671 54.8 -70.832 59.832 C-76.616 64.556 -82.487 69.148 -88.426 73.676 C-92.257 76.648 -96.016 79.7 -99.77 82.77 C-105.574 87.517 -111.462 92.129 -117.426 96.676 C-121.257 99.648 -125.016 102.7 -128.77 105.77 C-134.608 110.542 -140.52 115.197 -146.512 119.777 C-150.193 122.593 -153.861 125.424 -157.52 128.27 C-158.69 129.177 -159.86 130.085 -161.066 131.02 C-163.77 133.27 -163.77 133.27 -164.77 135.27 C-165.056 141.35 -165.083 147.431 -165.12 153.517 C-165.136 155.555 -165.163 157.593 -165.202 159.631 C-165.256 162.569 -165.278 165.506 -165.293 168.445 C-165.316 169.354 -165.338 170.262 -165.362 171.198 C-165.348 175.343 -165.129 177.783 -162.635 181.158 C-159.644 183.362 -156.703 185.164 -153.406 186.879 C-152.144 187.542 -150.881 188.205 -149.58 188.889 C-148.219 189.592 -146.859 190.295 -145.457 191.02 C-143.287 192.156 -141.117 193.293 -138.948 194.43 C-136.701 195.607 -134.453 196.779 -132.205 197.951 C-125.372 201.517 -118.572 205.147 -111.77 208.77 C-109.108 210.184 -106.447 211.598 -103.785 213.012 C-102.466 213.713 -101.146 214.414 -99.787 215.136 C-95.735 217.288 -91.682 219.439 -87.629 221.59 C-75.888 227.822 -64.148 234.057 -52.434 240.339 C-50.068 241.607 -47.702 242.872 -45.334 244.135 C-40.383 246.778 -35.448 249.435 -30.566 252.203 C-29.795 252.633 -29.025 253.063 -28.23 253.506 C-26.274 254.6 -24.328 255.713 -22.383 256.828 C-16.975 258.986 -12.591 259.354 -7.066 257.23 C-4.009 255.758 -1.048 254.168 1.918 252.52 C3.013 251.93 4.108 251.341 5.236 250.734 C8.578 248.931 11.905 247.103 15.23 245.27 C17.111 244.242 18.993 243.216 20.875 242.191 C23.556 240.73 26.236 239.267 28.912 237.796 C38.933 232.301 49.09 227.072 59.24 221.821 C64.697 218.99 70.134 216.121 75.571 213.251 C84.251 208.672 84.251 208.672 90.23 209.27 C94.231 211.714 95.89 213.229 97.355 217.707 C97.194 222.297 96.169 223.734 93.23 227.27 C90.156 229.428 86.881 231.119 83.543 232.832 C82.576 233.344 81.609 233.856 80.613 234.383 C77.494 236.028 74.364 237.651 71.23 239.27 C69.151 240.351 67.071 241.433 64.992 242.516 C61.846 244.152 58.698 245.786 55.548 247.415 C48.767 250.924 42.044 254.525 35.355 258.207 C26.866 262.871 18.319 267.416 9.73 271.895 C8.578 272.499 7.426 273.104 6.239 273.726 C5.153 274.29 4.068 274.853 2.949 275.434 C1.99 275.933 1.03 276.433 0.041 276.948 C-4.651 279.154 -8.883 280.559 -14.082 280.582 C-14.944 280.599 -15.807 280.616 -16.695 280.633 C-24.944 279.658 -31.839 275.843 -38.957 271.832 C-40.898 270.756 -42.84 269.681 -44.781 268.605 C-45.769 268.055 -46.757 267.504 -47.775 266.937 C-52.594 264.254 -57.43 261.602 -62.27 258.957 C-63.197 258.45 -64.124 257.943 -65.079 257.42 C-71.009 254.19 -77.001 251.129 -83.062 248.152 C-87.792 245.75 -92.434 243.201 -97.082 240.645 C-105.089 236.242 -113.15 231.962 -121.27 227.77 C-131.068 222.704 -140.788 217.516 -150.445 212.188 C-154.068 210.19 -157.711 208.241 -161.375 206.32 C-162.281 205.839 -163.188 205.358 -164.122 204.862 C-165.825 203.958 -167.535 203.065 -169.251 202.185 C-177.549 197.744 -182.057 191.796 -185.77 183.27 C-187.092 178.489 -186.949 173.614 -186.973 168.691 C-186.978 167.765 -186.984 166.839 -186.99 165.885 C-186.999 163.929 -187.006 161.972 -187.01 160.015 C-187.019 157.044 -187.05 154.073 -187.082 151.102 C-187.089 149.194 -187.094 147.286 -187.098 145.379 C-187.11 144.5 -187.122 143.622 -187.135 142.717 C-187.098 132.34 -183.816 124.755 -176.895 117.082 C-171.288 111.643 -164.946 107.033 -158.77 102.27 C-151.354 96.488 -143.989 90.655 -136.707 84.707 C-130.923 79.983 -125.052 75.391 -119.113 70.863 C-115.282 67.891 -111.523 64.839 -107.77 61.77 C-101.965 57.022 -96.077 52.41 -90.113 47.863 C-86.282 44.891 -82.523 41.839 -78.77 38.77 C-72.964 34.022 -67.077 29.407 -61.109 24.863 C-57.99 22.441 -54.927 19.959 -51.877 17.451 C-19.668 -9.029 -19.668 -9.029 0 0 Z " fill="#317BC1" transform="translate(269.76953125,86.73046875)"/>
<path d="M0 0 C1.708 -0.005 3.415 -0.012 5.123 -0.022 C9.737 -0.04 14.35 -0.027 18.964 -0.008 C23.808 0.009 28.651 -0 33.495 -0.005 C41.628 -0.01 49.76 0.006 57.893 0.034 C67.275 0.066 76.656 0.066 86.038 0.049 C95.088 0.033 104.138 0.04 113.189 0.057 C117.029 0.064 120.868 0.063 124.708 0.055 C129.237 0.048 133.765 0.06 138.293 0.087 C140.733 0.097 143.172 0.088 145.612 0.078 C156.001 0.168 164.139 1.301 172.787 7.256 C178.87 13.696 183.108 20.41 183.088 29.388 C183.088 30.569 183.088 31.75 183.088 32.966 C183.083 34.242 183.078 35.517 183.073 36.83 C183.072 37.483 183.072 37.483 183.068 40.786 C183.063 44.963 183.05 49.141 183.037 53.319 C183.032 56.147 183.028 58.976 183.024 61.805 C183.013 68.747 182.996 75.689 182.975 82.631 C181.895 81.653 180.814 80.674 179.701 79.666 C175.975 76.631 175.975 76.631 172.35 76.069 C168.848 76.652 166.873 77.644 163.975 79.631 C163.315 79.631 162.655 79.631 161.975 79.631 C161.966 78.047 161.956 76.462 161.947 74.829 C161.907 68.955 161.841 63.081 161.767 57.207 C161.739 54.664 161.718 52.12 161.704 49.577 C161.682 45.923 161.636 42.269 161.584 38.615 C161.584 38.046 161.584 38.046 161.581 35.165 C161.561 34.104 161.541 33.043 161.521 31.95 C161.512 31.018 161.503 30.085 161.494 29.124 C160.822 25.895 159.482 24.705 156.975 22.631 C154.095 21.191 151.61 21.492 148.39 21.477 C146.981 21.469 145.572 21.46 144.12 21.451 C142.564 21.447 141.008 21.443 139.405 21.438 C138.59 21.434 138.59 21.434 134.463 21.413 C129.044 21.387 123.625 21.372 118.205 21.358 C116.341 21.352 114.477 21.347 112.613 21.342 C104.861 21.32 97.109 21.301 89.356 21.29 C78.238 21.274 67.12 21.24 56.001 21.184 C48.188 21.145 40.375 21.125 32.561 21.12 C27.893 21.116 23.224 21.104 18.555 21.072 C13.348 21.036 8.141 21.04 2.933 21.048 C1.383 21.031 -0.167 21.015 -1.764 20.998 C-3.181 21.006 -4.599 21.015 -6.059 21.023 C-6.675 21.021 -6.675 21.021 -9.792 21.013 C-13.973 21.812 -15.454 23.295 -18.025 26.631 C-18.627 30.881 -18.627 30.881 -18.65 35.631 C-18.716 43.581 -19.429 47.035 -25.025 52.631 C-29.552 53.142 -32.078 53.235 -35.963 50.756 C-40.306 46.282 -39.322 41.067 -39.4 35.131 C-39.438 34.079 -39.475 33.027 -39.513 31.944 C-39.62 22.375 -36.94 16.117 -30.838 8.819 C-20.822 0.445 -12.695 -0.094 0 0 Z " fill="#FEBE2B" transform="translate(184.025146484375,220.368896484375)"/>
<path d="M0 0 C0.66 0 1.32 0 2 0 C2.047 22.94 2.082 45.88 2.104 68.819 C2.114 79.471 2.128 90.122 2.151 100.774 C2.171 110.059 2.184 119.344 2.188 128.628 C2.191 133.544 2.197 138.459 2.211 143.374 C2.225 148.004 2.229 152.633 2.226 157.262 C2.227 159.765 2.238 162.269 2.249 164.772 C2.246 166.272 2.243 167.773 2.241 169.318 C2.241 169.967 2.241 169.967 2.246 173.251 C1.864 179.077 1.303 183.608 -2.75 187.938 C-9.114 191.976 -16.387 191.139 -23.693 191.12 C-24.878 191.121 -26.064 191.122 -27.285 191.123 C-31.26 191.124 -35.235 191.119 -39.21 191.114 C-42.059 191.113 -44.907 191.113 -47.755 191.114 C-55.492 191.114 -63.229 191.108 -70.966 191.101 C-79.05 191.095 -87.133 191.095 -95.217 191.093 C-108.787 191.091 -122.357 191.084 -135.927 191.075 C-149.903 191.066 -163.879 191.059 -177.855 191.055 C-178.717 191.055 -179.579 191.054 -180.467 191.054 C-184.789 191.053 -189.112 191.052 -193.435 191.05 C-229.29 191.04 -265.145 191.022 -301 191 C-301 190.34 -301 189.68 -301 189 C-302.32 188.67 -303.64 188.34 -305 188 C-305 187.34 -305 186.68 -305 186 C-304.245 185.999 -304.245 185.999 -300.422 185.993 C-264.58 185.935 -228.737 185.863 -192.894 185.771 C-188.484 185.76 -184.074 185.749 -179.664 185.738 C-179.225 185.736 -179.225 185.736 -177.004 185.731 C-162.781 185.695 -148.558 185.671 -134.335 185.65 C-119.745 185.628 -105.156 185.595 -90.566 185.551 C-82.369 185.527 -74.173 185.509 -65.976 185.502 C-58.267 185.496 -50.557 185.476 -42.848 185.446 C-40.013 185.437 -37.179 185.433 -34.344 185.435 C-30.484 185.437 -26.623 185.42 -22.763 185.399 C-21.633 185.404 -20.504 185.408 -19.34 185.413 C-18.306 185.404 -17.272 185.395 -16.207 185.385 C-15.316 185.383 -14.424 185.381 -13.506 185.379 C-9.411 184.76 -6.768 182.963 -4.212 179.759 C-2.688 176.289 -2.621 173.647 -2.615 169.858 C-2.605 168.401 -2.595 166.944 -2.585 165.444 C-2.59 163.85 -2.595 162.257 -2.599 160.615 C-2.594 158.916 -2.587 157.218 -2.578 155.519 C-2.563 151.864 -2.557 148.21 -2.559 144.555 C-2.561 138.777 -2.541 133 -2.519 127.223 C-2.478 116.004 -2.459 104.786 -2.442 93.567 C-2.42 79.283 -2.387 64.999 -2.335 50.716 C-2.315 44.971 -2.306 39.226 -2.304 33.481 C-2.301 29.91 -2.291 26.339 -2.278 22.768 C-2.271 20.319 -2.275 17.87 -2.279 15.421 C-2.276 14.694 -2.276 14.694 -2.258 11.015 C-2.257 9.75 -2.255 8.484 -2.253 7.18 C-2 4 -2 4 0 0 Z " fill="#4E99E0" transform="translate(413,224)"/>
<path d="M0 0 C3.768 1.439 7.32 3.125 10.902 4.977 C12.033 5.561 13.164 6.146 14.329 6.748 C15.52 7.367 16.711 7.987 17.938 8.625 C19.157 9.258 20.377 9.891 21.634 10.543 C28.847 14.304 35.95 18.179 42.973 22.285 C47.303 24.738 51.768 26.893 56.234 29.086 C60.555 31.282 64.776 33.625 69 36 C75.409 39.597 81.865 43.029 88.469 46.262 C91.086 47.55 93.688 48.87 96.281 50.207 C96.998 50.575 96.998 50.575 100.625 52.438 C101.937 53.117 103.25 53.796 104.602 54.496 C108 56 108 56 112 56 C114.121 57.059 114.121 57.059 116.438 58.438 C122.545 61.558 128.159 62.484 135 62 C139.65 60.492 143.711 58.246 147.938 55.812 C149.107 55.173 150.277 54.533 151.481 53.874 C155.003 51.942 158.501 49.972 162 48 C164.854 46.434 167.714 44.88 170.575 43.328 C173.232 41.885 175.884 40.431 178.535 38.977 C184.56 35.684 190.615 32.452 196.688 29.25 C197.675 28.724 198.662 28.198 199.679 27.656 C200.593 27.176 201.507 26.697 202.449 26.203 C203.257 25.777 204.065 25.35 204.897 24.911 C207 24 207 24 210 24 C210 23.34 210 22.68 210 22 C211.931 20.967 213.87 19.949 215.812 18.938 C216.352 18.653 216.352 18.653 219.082 17.215 C222 16 222 16 225 17 C221 20 221 20 219 20 C219 20.66 219 21.32 219 22 C216.508 23.805 216.508 23.805 213.125 25.875 C212.58 26.214 212.58 26.214 209.82 27.93 C206.248 29.865 202.656 31.322 198.873 32.786 C192.949 35.29 187.342 38.446 181.688 41.5 C180.439 42.164 179.191 42.828 177.904 43.512 C168.629 48.495 168.629 48.495 165.234 51.221 C163 53 163 53 161 53 C160.67 53.99 160.34 54.98 160 56 C155.536 58.912 150.731 61.24 146 63.688 C144.697 64.389 143.394 65.091 142.051 65.814 C129.724 72.227 129.724 72.227 122 71 C118.848 69.863 118.848 69.863 116.062 68.312 C115.56 68.041 115.56 68.041 113.02 66.668 C112.023 66.118 111.027 65.567 110 65 C108.088 64.033 106.172 63.074 104.25 62.125 C102.847 61.424 101.445 60.722 100 60 C100 59.34 100 58.68 100 58 C98.35 57.67 96.7 57.34 95 57 C95 56.34 95 55.68 95 55 C94.567 54.948 94.567 54.948 92.375 54.688 C88.833 53.966 86.157 52.729 83 51 C83 50.34 83 49.68 83 49 C82.285 48.888 81.569 48.776 80.832 48.66 C77.809 47.955 75.437 46.867 72.688 45.438 C71.804 44.982 70.921 44.527 70.012 44.059 C69.348 43.709 68.684 43.36 68 43 C68 42.34 68 41.68 68 41 C66.35 40.67 64.7 40.34 63 40 C63 39.34 63 38.68 63 38 C62.152 37.908 61.304 37.817 60.43 37.723 C56.494 36.893 53.627 35.403 50.125 33.438 C48.973 32.797 47.82 32.156 46.633 31.496 C45.764 31.002 44.895 30.509 44 30 C44 29.34 44 28.68 44 28 C43.051 27.856 42.102 27.711 41.125 27.562 C38 27 38 27 36 26 C36 25.34 36 24.68 36 24 C34.597 23.546 33.195 23.092 31.75 22.625 C28.612 21.61 25.985 20.493 23 19 C23 18.34 23 17.68 23 17 C22.181 16.92 21.363 16.84 20.52 16.758 C16.095 15.805 12.666 14.027 8.688 11.875 C7.268 11.13 5.849 10.385 4.387 9.617 C1 7 1 7 0.02 3.195 C0.013 2.141 0.007 1.086 0 0 Z " fill="#3D88CF" transform="translate(129,284)"/>
<path d="M0 0 C0.33 0 0.66 0 1 0 C1.093 23.365 1.164 46.731 1.207 70.096 C1.228 80.945 1.256 91.794 1.302 102.643 C1.342 112.099 1.367 121.554 1.376 131.01 C1.382 136.017 1.394 141.023 1.423 146.03 C1.45 150.743 1.458 155.456 1.452 160.169 C1.454 161.898 1.461 163.628 1.477 165.357 C1.497 167.72 1.49 170.082 1.481 172.445 C1.485 173.767 1.488 175.089 1.492 176.451 C0.91 180.646 -0.296 182.769 -3 186 C-6.812 187.906 -8.028 188.25 -12.052 188.246 C-12.565 188.248 -12.565 188.248 -15.159 188.258 C-16.283 188.252 -17.408 188.247 -18.566 188.241 C-19.164 188.241 -19.164 188.241 -22.19 188.246 C-26.213 188.249 -30.236 188.238 -34.259 188.227 C-37.136 188.226 -40.014 188.227 -42.891 188.228 C-50.717 188.229 -58.543 188.217 -66.369 188.203 C-74.542 188.19 -82.715 188.189 -90.889 188.187 C-104.612 188.182 -118.335 188.169 -132.058 188.151 C-146.193 188.133 -160.328 188.118 -174.464 188.11 C-175.335 188.109 -176.206 188.109 -177.104 188.108 C-181.474 188.106 -185.844 188.103 -190.215 188.101 C-226.476 188.08 -262.738 188.045 -299 188 C-298.835 187.67 -298.835 187.67 -298 186 C-296.515 185.998 -295.03 185.995 -293.501 185.993 C-258.269 185.935 -223.037 185.863 -187.805 185.771 C-183.47 185.76 -179.135 185.749 -174.801 185.738 C-174.369 185.736 -174.369 185.736 -172.185 185.731 C-158.205 185.695 -144.225 185.671 -130.244 185.65 C-115.903 185.628 -101.562 185.595 -87.221 185.551 C-79.164 185.527 -71.107 185.509 -63.05 185.502 C-55.472 185.496 -47.894 185.476 -40.316 185.446 C-37.53 185.437 -34.744 185.433 -31.958 185.435 C-28.162 185.437 -24.368 185.42 -20.573 185.399 C-19.463 185.404 -18.353 185.408 -17.209 185.413 C-7.536 185.323 -7.536 185.323 -4 182 C-1.687 178.014 -1.743 174.263 -1.728 169.724 C-1.719 168.237 -1.709 166.751 -1.699 165.22 C-1.698 163.594 -1.698 161.967 -1.697 160.292 C-1.689 158.559 -1.681 156.826 -1.671 155.093 C-1.653 151.364 -1.641 147.636 -1.634 143.907 C-1.622 138.017 -1.597 132.128 -1.57 126.238 C-1.528 116.928 -1.496 107.619 -1.467 98.309 C-1.416 81.62 -1.354 64.93 -1.282 48.241 C-1.257 42.379 -1.237 36.518 -1.222 30.657 C-1.212 27.021 -1.198 23.384 -1.183 19.748 C-1.174 17.245 -1.17 14.741 -1.166 12.238 C-1.159 10.763 -1.152 9.288 -1.145 7.768 C-1.141 6.478 -1.137 5.187 -1.133 3.858 C-1 1 -1 1 0 0 Z " fill="#2873BB" transform="translate(409,222)"/>
<path d="M0 0 C0.66 0 1.32 0 2 0 C2.047 22.94 2.082 45.88 2.104 68.819 C2.114 79.471 2.128 90.122 2.151 100.774 C2.171 110.059 2.184 119.344 2.188 128.628 C2.191 133.544 2.197 138.459 2.211 143.374 C2.225 148.004 2.229 152.633 2.226 157.262 C2.227 159.765 2.238 162.269 2.249 164.772 C2.246 166.272 2.243 167.773 2.241 169.318 C2.241 169.967 2.241 169.967 2.246 173.251 C1.864 179.077 1.303 183.608 -2.75 187.938 C-9.114 191.976 -16.387 191.139 -23.693 191.12 C-24.878 191.121 -26.064 191.122 -27.285 191.123 C-31.26 191.124 -35.235 191.119 -39.21 191.114 C-42.059 191.113 -44.907 191.113 -47.755 191.114 C-55.492 191.114 -63.229 191.108 -70.966 191.101 C-79.05 191.095 -87.133 191.095 -95.217 191.093 C-108.787 191.091 -122.357 191.084 -135.927 191.075 C-149.903 191.066 -163.879 191.059 -177.855 191.055 C-178.717 191.055 -179.579 191.054 -180.467 191.054 C-184.789 191.053 -189.112 191.052 -193.435 191.05 C-229.29 191.04 -265.145 191.022 -301 191 C-301 190.34 -301 189.68 -301 189 C-300.25 188.999 -300.25 188.999 -296.454 188.993 C-260.855 188.935 -225.257 188.863 -189.658 188.771 C-185.278 188.76 -180.899 188.749 -176.519 188.738 C-175.647 188.735 -174.775 188.733 -173.877 188.731 C-159.751 188.695 -145.625 188.671 -131.499 188.65 C-117.008 188.628 -102.518 188.595 -88.028 188.551 C-79.887 188.527 -71.747 188.509 -63.606 188.502 C-55.949 188.496 -48.292 188.476 -40.635 188.446 C-37.82 188.437 -35.005 188.433 -32.19 188.435 C-28.355 188.437 -24.521 188.42 -20.687 188.399 C-20.126 188.401 -20.126 188.401 -17.288 188.413 C-16.774 188.409 -16.774 188.409 -14.176 188.385 C-13.733 188.384 -13.733 188.384 -11.493 188.379 C-7.416 187.759 -4.77 185.958 -2.212 182.777 C-0.659 179.219 -0.615 176.448 -0.601 172.565 C-0.589 171.044 -0.576 169.522 -0.563 167.955 C-0.564 166.273 -0.566 164.591 -0.568 162.909 C-0.559 161.135 -0.548 159.361 -0.537 157.587 C-0.509 152.773 -0.5 147.959 -0.494 143.146 C-0.485 138.114 -0.458 133.083 -0.434 128.051 C-0.39 118.525 -0.362 108.998 -0.339 99.471 C-0.312 88.625 -0.268 77.778 -0.222 66.932 C-0.129 44.621 -0.058 22.311 0 0 Z " fill="#438ED5" transform="translate(413,224)"/>
<path d="M0 0 C0 0.33 0 0.66 0 1 C-2.31 1.33 -4.62 1.66 -7 2 C-7 2.33 -7 2.66 -7 3 C-6.252 3.049 -5.505 3.098 -4.734 3.148 C-3.75 3.223 -2.765 3.298 -1.75 3.375 C-0.775 3.445 0.199 3.514 1.203 3.586 C4 4 4 4 8 6 C8 6.33 8 6.66 8 7 C7.492 7.001 7.492 7.001 4.922 7.008 C-7.684 7.362 -16.35 10.129 -25.609 18.883 C-28.91 21.806 -32.455 24.384 -36 27 C-40.829 30.577 -45.518 34.206 -49.973 38.242 C-53.675 41.452 -57.616 44.362 -61.512 47.332 C-66.194 50.913 -70.823 54.559 -75.453 58.207 C-77.836 60.083 -80.221 61.955 -82.609 63.824 C-88.85 68.709 -95.034 73.647 -101.152 78.684 C-105.608 82.308 -110.137 85.838 -114.66 89.379 C-117.453 91.571 -120.232 93.777 -123 96 C-126.956 99.176 -130.943 102.31 -134.938 105.438 C-140.21 109.573 -145.427 113.765 -150.598 118.027 C-152.293 119.42 -154.012 120.785 -155.746 122.129 C-158 124 -158 124 -159 126 C-159.743 126.371 -160.485 126.743 -161.25 127.125 C-165.048 129.714 -167.181 132.849 -169 137 C-169.699 140.841 -169.722 144.603 -169.707 148.5 C-169.722 149.576 -169.737 150.653 -169.753 151.761 C-169.796 155.175 -169.805 158.587 -169.812 162 C-169.836 164.324 -169.861 166.648 -169.889 168.973 C-169.951 174.649 -169.984 180.324 -170 186 C-170.66 185.67 -171.32 185.34 -172 185 C-172.074 178.168 -172.129 171.337 -172.165 164.504 C-172.18 162.182 -172.2 159.86 -172.226 157.539 C-172.263 154.192 -172.28 150.846 -172.293 147.5 C-172.301 146.985 -172.301 146.985 -172.34 144.377 C-172.342 137.371 -171.549 131.388 -167.195 125.602 C-161.934 120.579 -156.404 116.104 -150.59 111.734 C-146.656 108.738 -142.824 105.635 -139 102.5 C-133.196 97.752 -127.308 93.14 -121.344 88.594 C-117.512 85.622 -113.753 82.57 -110 79.5 C-104.195 74.753 -98.308 70.14 -92.344 65.594 C-88.512 62.622 -84.753 59.57 -81 56.5 C-75.195 51.753 -69.308 47.14 -63.344 42.594 C-59.512 39.622 -55.753 36.57 -52 33.5 C-46.159 28.725 -40.249 24.063 -34.246 19.492 C-29.447 15.807 -24.723 12.027 -19.996 8.25 C-17 6 -17 6 -13 4 C-12.67 3.01 -12.34 2.02 -12 1 C-7.96 -0.347 -4.232 -0.061 0 0 Z " fill="#539EE4" transform="translate(259,83)"/>
<path d="M0 0 C-0.99 0.33 -1.98 0.66 -3 1 C25.875 1.165 25.875 1.165 172 2 C172 2.66 172 3.32 172 4 C168.599 5.134 166.005 5.13 162.418 5.138 C161.034 5.143 159.651 5.149 158.225 5.155 C156.703 5.156 155.18 5.157 153.612 5.158 C151.155 5.166 148.698 5.173 146.242 5.181 C143.597 5.189 140.952 5.194 138.307 5.199 C132.788 5.21 127.269 5.23 121.75 5.252 C106.055 5.314 90.359 5.368 74.663 5.401 C65.998 5.42 57.332 5.449 48.667 5.489 C44.084 5.51 39.502 5.526 34.92 5.528 C29.797 5.531 24.675 5.556 19.553 5.583 C18.049 5.58 16.544 5.577 14.994 5.574 C5.618 5.648 -3.66 6.059 -12.035 10.672 C-19.427 18.249 -19.627 27.141 -20.465 37.223 C-20.641 38.799 -20.818 40.376 -21 42 C-21.33 42.165 -21.33 42.165 -23 43 C-23.859 18.412 -23.859 18.412 -16.906 10.668 C-13.076 7.022 -10.351 4.689 -5 4 C-5 3.01 -5 2.02 -5 1 C-5.66 0.67 -6.32 0.34 -7 0 C-4 -1 -4 -1 0 0 Z " fill="#FFDF4B" transform="translate(171,222)"/>
<path d="M0 0 C-0.33 0.66 -0.66 1.32 -1 2 C-1.448 2.001 -1.448 2.001 -3.716 2.004 C-25.524 2.041 -47.333 2.1 -69.141 2.184 C-79.687 2.224 -90.233 2.256 -100.779 2.271 C-109.971 2.284 -119.163 2.311 -128.355 2.355 C-133.222 2.377 -138.089 2.393 -142.956 2.392 C-147.538 2.391 -152.119 2.409 -156.701 2.441 C-159.183 2.454 -161.666 2.447 -164.148 2.439 C-165.628 2.453 -167.109 2.467 -168.635 2.481 C-169.277 2.483 -169.277 2.483 -172.529 2.492 C-176.628 3.092 -178.715 4.536 -182 7 C-182.66 7.33 -182.66 7.33 -186 9 C-190.859 15.954 -191.597 23.337 -191.762 31.617 C-191.991 34.867 -192.607 37.082 -194 40 C-194.99 39.67 -195.98 39.34 -197 39 C-196.67 38.34 -196.34 37.68 -196 37 C-195.784 34.401 -195.568 31.802 -195.356 29.202 C-194.44 19.392 -193.394 12.188 -186.254 4.891 C-176.558 -0.743 -165.375 -0.447 -154.479 -0.448 C-152.866 -0.46 -151.253 -0.472 -149.591 -0.484 C-145.204 -0.516 -140.816 -0.529 -136.428 -0.539 C-131.823 -0.552 -127.218 -0.581 -122.614 -0.608 C-114.891 -0.652 -107.169 -0.684 -99.447 -0.708 C-89.538 -0.74 -79.629 -0.79 -69.72 -0.846 C-61.186 -0.894 -52.652 -0.934 -44.118 -0.972 C-41.38 -0.984 -38.642 -0.998 -35.904 -1.012 C-30.808 -1.038 -25.712 -1.054 -20.615 -1.069 C-19.1 -1.078 -17.585 -1.086 -16.023 -1.094 C-15.33 -1.096 -15.33 -1.096 -11.823 -1.102 C-10.619 -1.107 -9.415 -1.111 -8.174 -1.116 C-5.32 -1.012 -2.772 -0.66 0 0 Z " fill="#FFCF3A" transform="translate(345,227)"/>
<path d="M0 0 C0 0.66 0 1.32 0 2 C-0.811 2.525 -1.623 3.051 -2.459 3.592 C-5 6 -5 6 -5.639 9.822 C-5.646 11.376 -5.653 12.931 -5.659 14.532 C-5.67 15.391 -5.68 16.25 -5.691 17.135 C-5.72 19.971 -5.714 22.805 -5.707 25.641 C-5.72 27.608 -5.735 29.575 -5.753 31.542 C-5.793 36.718 -5.803 41.893 -5.807 47.068 C-5.816 52.35 -5.854 57.632 -5.889 62.914 C-5.953 73.276 -5.986 83.638 -6 94 C-5.34 94 -4.68 94 -4 94 C-4 96.64 -4 99.28 -4 102 C-4.66 102 -5.32 102 -6 102 C-9.183 95.644 -10.503 91.102 -10.518 83.872 C-10.525 83.009 -10.532 82.146 -10.539 81.257 C-10.556 78.435 -10.545 75.615 -10.531 72.793 C-10.534 70.82 -10.538 68.847 -10.543 66.874 C-10.549 62.755 -10.54 58.635 -10.521 54.516 C-10.499 49.235 -10.512 43.955 -10.536 38.675 C-10.55 34.607 -10.546 30.54 -10.535 26.473 C-10.533 24.526 -10.536 22.578 -10.545 20.63 C-10.555 17.913 -10.54 15.198 -10.518 12.481 C-10.514 10.936 -10.511 9.391 -10.508 7.799 C-10 4 -10 4 -8.171 1.486 C-5.328 -0.46 -3.371 -0.306 0 0 Z " fill="#4B96DD" transform="translate(96,310)"/>
<path d="M0 0 C0 1.32 0 2.64 0 4 C-1.134 3.67 -2.269 3.34 -3.438 3 C-12.087 1.104 -18.241 1.806 -26 6 C-28.702 7.986 -31.219 9.95 -33.75 12.125 C-35.15 13.296 -36.551 14.465 -37.953 15.633 C-38.638 16.207 -39.323 16.781 -40.029 17.372 C-42.796 19.658 -45.641 21.831 -48.5 24 C-53.327 27.68 -58.055 31.466 -62.75 35.312 C-68.516 40.027 -74.345 44.649 -80.25 49.188 C-80.965 49.74 -81.68 50.293 -82.417 50.863 C-85.546 53.252 -88.465 55.232 -92 57 C-92 57.66 -92 58.32 -92 59 C-93.554 60.253 -95.172 61.426 -96.812 62.562 C-100.786 65.379 -104.626 68.266 -108.375 71.375 C-112.251 74.588 -116.183 77.698 -120.188 80.75 C-129.043 87.521 -137.66 94.584 -146.25 101.688 C-150.714 105.375 -155.127 108.86 -160 112 C-162.689 113.971 -165.343 115.985 -168 118 C-165.979 113.958 -164.697 112.665 -161.25 109.938 C-160.758 109.546 -160.758 109.546 -158.27 107.562 C-157.73 107.14 -157.73 107.14 -155 105 C-154.424 104.546 -154.424 104.546 -151.512 102.25 C-149.123 100.371 -146.733 98.494 -144.34 96.621 C-141.547 94.429 -138.768 92.223 -136 90 C-132.148 86.907 -128.266 83.856 -124.375 80.812 C-119.207 76.76 -114.089 72.652 -109 68.5 C-99.64 60.867 -90.152 53.406 -80.562 46.062 C-74.561 41.459 -68.656 36.743 -62.758 32.008 C-56.872 27.296 -50.935 22.65 -45 18 C-42.479 16.021 -39.958 14.042 -37.438 12.062 C-36.322 11.187 -35.207 10.312 -34.059 9.41 C-32.139 7.898 -30.231 6.371 -28.34 4.824 C-21.047 -0.861 -8.797 -4.398 0 0 Z " fill="#3F8AD1" transform="translate(268,91)"/>
<path d="M0 0 C-4 3 -4 3 -6 3 C-6 3.66 -6 4.32 -6 5 C-8.492 6.805 -8.492 6.805 -11.875 8.875 C-12.42 9.214 -12.42 9.214 -15.18 10.93 C-18.757 12.868 -22.356 14.329 -26.145 15.794 C-31.978 18.257 -37.497 21.366 -43.062 24.375 C-44.277 25.022 -45.492 25.669 -46.744 26.336 C-51.961 29.141 -57.075 31.957 -61.965 35.305 C-65.472 37.647 -68.577 39.274 -72.5 40.75 C-77.897 42.794 -77.897 42.794 -79 45 C-86.319 48.594 -92.856 50.69 -101 50 C-101 49.67 -101 49.34 -101 49 C-100.196 48.876 -99.391 48.752 -98.562 48.625 C-97.717 48.419 -96.871 48.212 -96 48 C-95.67 47.34 -95.34 46.68 -95 46 C-96.98 46 -98.96 46 -101 46 C-101 45.67 -101 45.34 -101 45 C-100.225 45.064 -100.225 45.064 -96.301 45.391 C-88.861 45.376 -83.558 42.315 -77.188 38.75 C-76.598 38.432 -76.598 38.432 -73.616 36.825 C-70.065 34.905 -66.532 32.955 -63 31 C-61.054 29.938 -59.108 28.878 -57.16 27.82 C-53.591 25.879 -50.027 23.93 -46.465 21.977 C-40.44 18.684 -34.385 15.452 -28.312 12.25 C-27.325 11.724 -26.338 11.198 -25.321 10.656 C-24.407 10.176 -23.493 9.697 -22.551 9.203 C-21.743 8.777 -20.935 8.35 -20.103 7.911 C-18 7 -18 7 -15 7 C-15 6.34 -15 5.68 -15 5 C-13.069 3.967 -11.13 2.949 -9.188 1.938 C-8.109 1.369 -7.03 0.801 -5.918 0.215 C-3 -1 -3 -1 0 0 Z " fill="#549EE4" transform="translate(354,301)"/>
<path d="M0 0 C0.33 0 0.66 0 1 0 C1.099 5.729 1.172 11.458 1.22 17.188 C1.24 19.135 1.267 21.083 1.302 23.03 C1.35 25.835 1.373 28.64 1.391 31.445 C1.411 32.311 1.432 33.177 1.453 34.069 C1.455 39.552 0.635 42.842 -3 47 C-3.66 47 -4.32 47 -5 47 C-5 32.15 -5 17.3 -5 2 C-3.68 2 -2.36 2 -1 2 C-0.67 1.34 -0.34 0.68 0 0 Z " fill="#FFD540" transform="translate(354,247)"/>
<path d="M0 0 C-1.373 5.341 -4.532 7.048 -9 10 C-11.473 11.323 -13.974 12.593 -16.5 13.812 C-27.293 19.11 -37.85 24.765 -48.312 30.688 C-60.348 37.469 -60.348 37.469 -66 40 C-66.99 39.67 -67.98 39.34 -69 39 C-61.002 33.373 -52.52 28.863 -43.875 24.312 C-42.448 23.554 -41.021 22.795 -39.551 22.014 C-33.436 18.779 -27.372 15.697 -21 13 C-19.539 12.143 -18.096 11.253 -16.688 10.312 C-13 8 -13 8 -11 8 C-11 7.34 -11 6.68 -11 6 C-8.5 4.375 -8.5 4.375 -6 3 C-6.165 2.67 -6.165 2.67 -7 1 C-5 0 -5 0 0 0 Z " fill="#438DD1" transform="translate(359,298)"/>
<path d="M0 0 C0.66 0 1.32 0 2 0 C1.67 0.99 1.34 1.98 1 3 C0.67 3.165 0.67 3.165 -1 4 C-5.15 9.817 -4.476 16.43 -4.512 23.273 C-4.53 24.552 -4.548 25.831 -4.566 27.149 C-4.62 31.224 -4.654 35.299 -4.688 39.375 C-4.721 42.142 -4.755 44.909 -4.791 47.676 C-4.876 54.45 -4.944 61.225 -5 68 C-9.289 63.711 -8.978 61.062 -9.101 55.061 C-9.093 53.066 -9.077 51.07 -9.055 49.074 C-9.043 48.013 -9.031 46.951 -9.019 45.857 C-8.99 43.614 -8.958 41.371 -8.923 39.127 C-8.891 36.84 -8.87 34.552 -8.859 32.264 C-8.844 28.95 -8.797 25.638 -8.742 22.324 C-8.743 21.817 -8.743 21.817 -8.745 19.249 C-8.543 10.752 -6.084 6.084 0 0 Z " fill="#418CD3" transform="translate(97,209)"/>
<path d="M0 0 C0.99 0.99 1.98 1.98 3 3 C1.02 3.99 -0.96 4.98 -3 6 C-3.33 35.04 -3.66 64.08 -4 94 C-4.66 94 -5.32 94 -6 94 C-6.093 82.595 -6.164 71.191 -6.207 59.786 C-6.228 54.49 -6.256 49.195 -6.302 43.899 C-6.345 38.79 -6.369 33.681 -6.38 28.572 C-6.387 26.621 -6.401 24.671 -6.423 22.72 C-6.452 19.991 -6.456 17.262 -6.454 14.532 C-6.463 12.978 -6.472 11.423 -6.481 9.822 C-6 6 -6 6 -4.097 3.467 C-2 2 -2 2 0 2 C0 1.34 0 0.68 0 0 Z " fill="#3C87CE" transform="translate(96,310)"/>
</svg>
