<?xml version="1.0" encoding="UTF-8"?>
<!-- Generator: visioncortex VTracer 0.6.12 -->
<svg version="1.1" xmlns="http://www.w3.org/2000/svg" width="512" height="512">
<path d="M0 0 C168.96 0 337.92 0 512 0 C512 168.96 512 337.92 512 512 C343.04 512 174.08 512 0 512 C0 343.04 0 174.08 0 0 Z " fill="#4990E2" transform="translate(0,0)"/>
<path d="M0 0 C1.186 0.005 2.373 0.01 3.595 0.015 C12.259 0.131 20.337 0.875 28.688 3.312 C29.921 3.664 31.155 4.016 32.426 4.379 C55.503 11.521 71.992 24.986 88.664 41.793 C90.248 43.377 91.833 44.96 93.418 46.543 C96.714 49.837 100.002 53.138 103.286 56.444 C107.486 60.672 111.701 64.885 115.921 69.093 C119.185 72.35 122.442 75.614 125.696 78.881 C127.248 80.437 128.802 81.992 130.358 83.544 C132.528 85.711 134.689 87.888 136.846 90.067 C137.483 90.7 138.12 91.332 138.776 91.983 C146.625 99.964 149.953 107.933 150.062 119.062 C149.884 130.446 146.723 139.133 138.688 147.312 C131.177 153.897 121.832 156.832 112 157.75 C95.314 156.057 84.993 146.183 73.727 134.672 C72.406 133.339 71.085 132.007 69.763 130.676 C66.306 127.194 62.862 123.7 59.42 120.203 C53.894 114.591 48.355 108.992 42.809 103.4 C40.878 101.449 38.955 99.491 37.032 97.533 C35.852 96.339 34.671 95.146 33.491 93.952 C32.464 92.909 31.437 91.865 30.379 90.79 C25.556 86.35 21.708 85.813 15.449 85.93 C10.209 86.656 7.189 89.666 3.75 93.438 C2.078 97.961 1.852 102.568 2.688 107.312 C5.565 112.174 9.088 115.982 13.054 119.985 C13.369 120.305 13.369 120.305 14.963 121.92 C17.039 124.02 19.122 126.112 21.207 128.203 C22.668 129.673 24.128 131.142 25.589 132.612 C28.652 135.692 31.72 138.768 34.791 141.841 C38.691 145.747 42.575 149.669 46.456 153.595 C49.47 156.639 52.495 159.672 55.524 162.701 C56.959 164.14 58.389 165.583 59.816 167.03 C78.962 186.437 99.848 199.14 127.736 199.605 C139.279 199.674 149.676 199.181 160.688 195.312 C161.759 194.939 162.83 194.565 163.934 194.18 C187.329 185.179 203.067 167.517 213.688 145.312 C222.269 125.909 222.585 101.21 215.688 81.312 C215.337 80.275 214.986 79.237 214.625 78.168 C206.639 57.011 190.585 39.916 170.375 30 C150.327 21.341 130.956 19.189 109.59 23.656 C105.507 24.343 101.819 24.584 97.688 24.312 C94.996 22.137 93.232 20.402 91.688 17.312 C91.32 13.418 91.204 11.102 93.273 7.723 C96.261 4.74 98.554 4.088 102.625 3.062 C103.83 2.748 105.036 2.433 106.277 2.109 C107.403 1.846 108.528 1.583 109.688 1.312 C110.063 1.225 110.063 1.225 111.961 0.78 C141.625 -4.304 171.195 3.341 195.688 20.312 C217.171 36.361 231.744 57.326 238.688 83.312 C238.847 83.836 238.847 83.836 239.656 86.484 C246.261 111.069 241.581 140.04 229.688 162.312 C213.255 190.727 188.801 210.685 156.887 219.344 C127.368 225.651 97.842 220.802 71.957 205.434 C57.001 195.731 44.384 182.164 31.816 169.645 C30.65 168.484 29.484 167.324 28.283 166.129 C25.842 163.698 23.403 161.265 20.965 158.83 C17.86 155.731 14.745 152.64 11.629 149.552 C8.622 146.569 5.626 143.575 2.629 140.582 C1.519 139.485 0.41 138.388 -0.733 137.258 C-11.275 126.685 -19.192 116.234 -19.875 100.812 C-19.469 90.184 -15.082 82.068 -7.777 74.508 C0.257 67.352 8.866 63.763 19.652 64 C35.33 65.614 44.28 74.606 54.876 85.381 C56.725 87.261 58.582 89.134 60.441 91.006 C65.719 96.324 70.984 101.654 76.246 106.987 C79.478 110.262 82.717 113.529 85.96 116.792 C87.189 118.031 88.414 119.272 89.636 120.517 C91.346 122.258 93.066 123.99 94.787 125.721 C95.76 126.707 96.733 127.692 97.736 128.708 C102.223 132.667 106.666 135.898 112.812 135.75 C117.325 135.345 119.178 134.944 122.688 132.312 C123.347 132.312 124.007 132.312 124.688 132.312 C125.347 130.993 126.007 129.673 126.688 128.312 C127.017 127.653 127.017 127.653 128.688 124.312 C129.31 116.716 127.778 111.781 122.839 105.95 C122.26 105.367 122.26 105.367 119.327 102.418 C118.686 101.769 118.045 101.119 117.384 100.449 C115.27 98.313 113.142 96.191 111.012 94.07 C109.524 92.578 108.038 91.085 106.551 89.591 C103.433 86.463 100.308 83.342 97.177 80.226 C93.196 76.262 89.235 72.278 85.28 68.287 C82.212 65.197 79.131 62.118 76.047 59.042 C74.584 57.58 73.125 56.114 71.669 54.643 C51.497 34.297 28.358 21.134 -0.938 20.812 C-25.177 21.079 -46.565 30.984 -64.062 47.5 C-73.167 57.007 -79.921 67.929 -84.312 80.312 C-84.869 81.756 -85.426 83.2 -86 84.688 C-93.282 110.349 -88.674 134.323 -76.656 157.508 C-64.779 177.478 -44.83 191.701 -22.531 197.621 C-14.645 199.315 -7.039 199.496 1 199.5 C1.586 199.506 1.586 199.506 4.553 199.537 C11.578 199.549 17.845 198.888 24.688 197.312 C29.596 196.807 31.856 196.852 36.188 199.25 C38.688 202.312 38.688 202.312 39.312 206.812 C38.661 211.502 38.169 213.207 34.688 216.312 C12.904 226.525 -17.697 222.56 -39.457 214.879 C-68.298 203.161 -89.797 182.182 -102.402 153.867 C-113.801 126.688 -113.671 95.859 -103.062 68.5 C-98.013 56.894 -91.419 46.977 -83.312 37.312 C-82.549 36.302 -81.786 35.291 -81 34.25 C-76.869 29.734 -72.143 26.054 -67.312 22.312 C-66.529 21.701 -65.745 21.09 -64.938 20.461 C-45.904 6.378 -23.449 -0.116 0 0 Z " fill="#FCFDFE" transform="translate(193.3125,139.6875)"/>
</svg>
